<?xml version="1.0" encoding="utf-8"?>
<!-- Generator: Adobe Illustrator 19.0.1, SVG Export Plug-In . SVG Version: 6.00 Build 0)  -->
<!DOCTYPE svg PUBLIC "-//W3C//DTD SVG 1.1//EN" "http://www.w3.org/Graphics/SVG/1.1/DTD/svg11.dtd">
<svg version="1.1" id="Layer_1" xmlns="http://www.w3.org/2000/svg" xmlns:xlink="http://www.w3.org/1999/xlink" x="0px" y="0px"
	 width="234px" height="176px" viewBox="0 0 234 176" enable-background="new 0 0 234 176" xml:space="preserve">
<path fill="#444444" d="M40.1,35.1c-0.6,0-1.2-0.5-1.2-1.2c0-0.6,0.5-1.2,1.2-1.2c0.6,0,1.2,0.5,1.2,1.2
	C41.3,34.6,40.8,35.1,40.1,35.1z M40.1,33.3c-0.4,0-0.7,0.3-0.7,0.7c0,0.4,0.3,0.7,0.7,0.7c0.4,0,0.7-0.3,0.7-0.7
	C40.8,33.6,40.5,33.3,40.1,33.3z"/>
<path fill="#444444" d="M43.8,35c-0.6,0-1.2-0.5-1.2-1.2c0-0.6,0.5-1.2,1.2-1.2s1.2,0.5,1.2,1.2C44.9,34.5,44.4,35,43.8,35z
	 M43.8,33.2c-0.4,0-0.7,0.3-0.7,0.7c0,0.4,0.3,0.7,0.7,0.7s0.7-0.3,0.7-0.7C44.4,33.5,44.1,33.2,43.8,33.2z"/>
<path fill="#444444" d="M42,33.3c-0.6,0-1.2-0.5-1.2-1.2s0.5-1.2,1.2-1.2c0.6,0,1.2,0.5,1.2,1.2S42.6,33.3,42,33.3z M42,31.4
	c-0.4,0-0.7,0.3-0.7,0.7s0.3,0.7,0.7,0.7c0.4,0,0.7-0.3,0.7-0.7S42.4,31.4,42,31.4z"/>
<path fill="#444444" d="M42,37c-0.6,0-1.2-0.5-1.2-1.2c0-0.6,0.5-1.2,1.2-1.2c0.6,0,1.2,0.5,1.2,1.2C43.2,36.4,42.6,37,42,37z
	 M42,35.1c-0.4,0-0.7,0.3-0.7,0.7c0,0.4,0.3,0.7,0.7,0.7c0.4,0,0.7-0.3,0.7-0.7C42.7,35.4,42.4,35.1,42,35.1z"/>
<path fill="#444444" d="M35.9,27.6C35.9,27.6,35.9,27.6,35.9,27.6c-0.2,0-0.3-0.2-0.2-0.3c0-0.1,0.3-1.9,1.8-3
	c1-0.7,2.3-0.9,3.8-0.6c0.1,0,2.5,0.8,4.2-0.2c0.9-0.5,1.5-1.5,1.7-2.9c0-0.1,0.2-0.2,0.3-0.2c0.1,0,0.2,0.2,0.2,0.3
	c-0.3,1.5-0.9,2.6-2,3.2c-1.9,1.2-4.5,0.3-4.6,0.3c-1.3-0.3-2.5-0.1-3.4,0.5c-1.3,0.9-1.6,2.6-1.6,2.6C36.1,27.6,36,27.6,35.9,27.6z
	"/>
<path fill="#444444" d="M29.7,37.1c-0.6,0-1-0.5-1-1v-0.7h-0.7c-0.6,0-1-0.5-1-1c0-0.6,0.5-1,1-1h0.7v-0.7c0-0.6,0.5-1,1-1
	c0.6,0,1,0.5,1,1v0.7h0.6c0.6,0,1,0.5,1,1c0,0.6-0.5,1-1,1h-0.6V36C30.7,36.6,30.3,37.1,29.7,37.1z M27.9,33.8
	c-0.3,0-0.5,0.2-0.5,0.5c0,0.3,0.2,0.5,0.5,0.5h1c0.1,0,0.2,0.1,0.2,0.2V36c0,0.3,0.2,0.5,0.5,0.5c0.3,0,0.5-0.2,0.5-0.5v-0.9
	c0-0.1,0.1-0.2,0.2-0.2h0.8c0.3,0,0.5-0.2,0.5-0.5c0-0.3-0.2-0.5-0.5-0.5h-0.8c-0.1,0-0.2-0.1-0.2-0.2v-0.9c0-0.3-0.2-0.5-0.5-0.5
	c-0.3,0-0.5,0.2-0.5,0.5v0.9c0,0.1-0.1,0.2-0.2,0.2H27.9z"/>
<path fill="#444444" d="M26.6,32.1C26.6,32.1,26.6,32.1,26.6,32.1c-0.2-0.1-0.3-0.2-0.2-0.3c0-0.1,0.7-1.6,2.8-2.1
	c0.1,0,0.3,0.1,0.3,0.2c0,0.1-0.1,0.3-0.2,0.3c-1.8,0.4-2.4,1.8-2.4,1.8C26.8,32.1,26.7,32.1,26.6,32.1z"/>
<path fill="#444444" d="M44,25.6c-0.7,0-1.1-0.1-1.2-0.1c-0.1,0-0.2-0.2-0.2-0.3c0-0.1,0.2-0.2,0.3-0.2c0.1,0,2.8,0.8,4.3-1.8
	c0.1-0.1,0.2-0.2,0.3-0.1c0.1,0.1,0.2,0.2,0.1,0.3C46.6,25.2,45,25.6,44,25.6z"/>
<path fill="#444444" d="M33.9,31.9c-0.2,0-0.4-0.1-0.6-0.2c-0.3-0.3-0.3-0.8,0-1.1l0.7-0.7c0.3-0.3,0.8-0.3,1.1,0
	c0.1,0.1,0.2,0.3,0.2,0.6c0,0.2-0.1,0.4-0.2,0.5l-0.7,0.7C34.3,31.8,34.1,31.9,33.9,31.9z M34.6,30.2c-0.1,0-0.1,0-0.2,0.1
	c0,0,0,0,0,0l-0.7,0.7c-0.1,0.1-0.1,0.3,0,0.4c0.1,0.1,0.3,0.1,0.4,0l0.7-0.7c0.1-0.1,0.1-0.1,0.1-0.2c0-0.1,0-0.1-0.1-0.2
	C34.7,30.2,34.7,30.2,34.6,30.2z"/>
<path fill="#444444" d="M36.4,31.9c-0.2,0-0.4-0.1-0.5-0.2c-0.1-0.1-0.2-0.3-0.2-0.6c0-0.2,0.1-0.4,0.2-0.5l0.7-0.7
	c0.3-0.3,0.8-0.3,1.1,0c0.1,0.1,0.2,0.3,0.2,0.6c0,0.2-0.1,0.4-0.2,0.5L37,31.7C36.8,31.8,36.6,31.9,36.4,31.9z M37.1,30.2
	c-0.1,0-0.1,0-0.2,0.1l-0.7,0.7c-0.1,0.1-0.1,0.1-0.1,0.2c0,0.1,0,0.1,0.1,0.2c0.1,0.1,0.3,0.1,0.4,0l0.7-0.7
	c0.1-0.1,0.1-0.1,0.1-0.2c0-0.1,0-0.1-0.1-0.2C37.2,30.2,37.1,30.2,37.1,30.2z"/>
<path fill="#444444" d="M41.8,39.9c-1.6,0-3.1-0.7-4.2-1.8h-3.5c-1.1,1.1-2.6,1.8-4.2,1.8c-3.2,0-5.8-2.6-5.8-5.8s2.6-5.8,5.8-5.8
	h11.9c3.2,0,5.8,2.6,5.8,5.8S45,39.9,41.8,39.9z M34,37.6h3.7c0.1,0,0.1,0,0.2,0.1c1,1.1,2.4,1.7,3.9,1.7c2.9,0,5.3-2.4,5.3-5.3
	s-2.4-5.3-5.3-5.3H29.9c-2.9,0-5.3,2.4-5.3,5.3s2.4,5.3,5.3,5.3c1.5,0,2.9-0.6,3.9-1.7C33.9,37.6,34,37.6,34,37.6z"/>
<path fill="#444444" d="M38,115c-1.2,0-2.3-0.6-2.3-0.6c-4-1.7-6.3-0.1-6.3-0.1c-0.1,0.1-0.3,0.1-0.3-0.1c-0.1-0.1-0.1-0.3,0.1-0.3
	c0.1-0.1,2.5-1.8,6.8,0.1c0.1,0.1,2.8,1.6,4.3-0.7c0.1-0.1,0.2-0.2,0.3-0.1c0.1,0.1,0.2,0.2,0.1,0.3C39.9,114.6,38.9,115,38,115z"/>
<path fill="#444444" d="M42.8,120.4H27.5c-0.7,0-1.3-0.4-1.6-1c-0.3-0.6-0.2-1.4,0.2-1.9l6.1-7.6v-6.7c-0.4-0.1-0.8-0.5-0.8-1
	c0-0.6,0.5-1,1-1h5.3c0.6,0,1,0.5,1,1c0,0.5-0.3,0.9-0.8,1v6.7l6.1,7.6c0.4,0.5,0.5,1.3,0.2,1.9C44.1,120,43.4,120.4,42.8,120.4z
	 M32.5,101.7c-0.3,0-0.5,0.2-0.5,0.5s0.2,0.5,0.5,0.5c0.1,0,0.2,0.1,0.2,0.2v7c0,0.1,0,0.1-0.1,0.2l-6.2,7.7
	c-0.3,0.4-0.4,0.9-0.2,1.3c0.2,0.4,0.7,0.7,1.1,0.7h15.3c0.5,0,0.9-0.3,1.1-0.7c0.2-0.4,0.2-1-0.2-1.3h0l-6.1-7.7
	c0,0-0.1-0.1-0.1-0.2v-7c0-0.1,0.1-0.2,0.2-0.2c0.3,0,0.5-0.2,0.5-0.5s-0.2-0.5-0.5-0.5H32.5z"/>
<path fill="#444444" d="M33.3,100.4c-0.6,0-1-0.5-1-1s0.5-1,1-1c0.6,0,1,0.5,1,1S33.9,100.4,33.3,100.4z M33.3,98.8
	c-0.3,0-0.5,0.2-0.5,0.5s0.2,0.5,0.5,0.5c0.3,0,0.5-0.2,0.5-0.5S33.6,98.8,33.3,98.8z"/>
<path fill="#444444" d="M36.6,99.4c-1.3,0-2.4-1.1-2.4-2.4s1.1-2.4,2.4-2.4c1.3,0,2.4,1.1,2.4,2.4S37.9,99.4,36.6,99.4z M36.6,95.1
	c-1,0-1.9,0.8-1.9,1.9c0,1,0.8,1.9,1.9,1.9c1,0,1.9-0.8,1.9-1.9C38.4,96,37.6,95.1,36.6,95.1z"/>
<path fill="#444444" d="M32.7,97.2c-0.5,0-0.8-0.4-0.8-0.8c0-0.5,0.4-0.8,0.8-0.8c0.5,0,0.8,0.4,0.8,0.8
	C33.6,96.8,33.2,97.2,32.7,97.2z M32.7,96c-0.2,0-0.3,0.2-0.3,0.3c0,0.2,0.2,0.3,0.3,0.3c0.2,0,0.3-0.2,0.3-0.3
	C33.1,96.2,32.9,96,32.7,96z"/>
<path fill="#444444" d="M38.1,75.2c-0.6,0-1.2-0.5-1.2-1.2s0.5-1.2,1.2-1.2c0.6,0,1.2,0.5,1.2,1.2S38.7,75.2,38.1,75.2z M38.1,73.4
	c-0.4,0-0.7,0.3-0.7,0.7s0.3,0.7,0.7,0.7c0.4,0,0.7-0.3,0.7-0.7S38.4,73.4,38.1,73.4z"/>
<path fill="#444444" d="M39.9,73.4c-0.6,0-1.2-0.5-1.2-1.2c0-0.6,0.5-1.2,1.2-1.2c0.6,0,1.2,0.5,1.2,1.2
	C41,72.8,40.5,73.4,39.9,73.4z M39.9,71.5c-0.4,0-0.7,0.3-0.7,0.7s0.3,0.7,0.7,0.7c0.4,0,0.7-0.3,0.7-0.7S40.2,71.5,39.9,71.5z"/>
<path fill="#444444" d="M32,75.4c-0.5,0-0.9-0.4-0.9-0.9V74h-0.6c-0.5,0-0.9-0.4-0.9-0.9c0-0.5,0.4-0.9,0.9-0.9h0.6v-0.5
	c0-0.5,0.4-0.9,0.9-0.9c0.5,0,0.9,0.4,0.9,0.9v0.5h0.4c0.5,0,0.9,0.4,0.9,0.9c0,0.5-0.4,0.9-0.9,0.9h-0.4v0.5
	C32.9,75,32.5,75.4,32,75.4z M30.5,72.7c-0.2,0-0.4,0.2-0.4,0.4c0,0.2,0.2,0.4,0.4,0.4h0.8c0.1,0,0.2,0.1,0.2,0.2v0.8
	c0,0.2,0.2,0.4,0.4,0.4c0.2,0,0.4-0.2,0.4-0.4v-0.8c0-0.1,0.1-0.2,0.2-0.2h0.7c0.2,0,0.4-0.2,0.4-0.4c0-0.2-0.2-0.4-0.4-0.4h-0.7
	c-0.1,0-0.2-0.1-0.2-0.2v-0.8c0-0.2-0.2-0.4-0.4-0.4c-0.2,0-0.4,0.2-0.4,0.4v0.8c0,0.1-0.1,0.2-0.2,0.2H30.5z"/>
<path fill="#444444" d="M42,79.6H28.9c-0.5,0-0.8-0.4-0.8-0.8v-21c0-0.5,0.4-0.8,0.8-0.8H42c0.5,0,0.8,0.4,0.8,0.8v21
	C42.8,79.2,42.4,79.6,42,79.6z M28.9,57.3c-0.2,0-0.3,0.2-0.3,0.3v21c0,0.2,0.2,0.3,0.3,0.3H42c0.2,0,0.3-0.2,0.3-0.3v-21
	c0-0.2-0.2-0.3-0.3-0.3H28.9z"/>
<path fill="#444444" d="M39.6,69.2h-8.3c-0.9,0-1.7-0.7-1.7-1.7v-7.5c0-0.9,0.7-1.7,1.7-1.7h8.3c0.9,0,1.7,0.7,1.7,1.7v7.5
	C41.2,68.5,40.5,69.2,39.6,69.2z M31.3,58.9c-0.6,0-1.2,0.5-1.2,1.2v7.5c0,0.6,0.5,1.2,1.2,1.2h8.3c0.6,0,1.2-0.5,1.2-1.2v-7.5
	c0-0.6-0.5-1.2-1.2-1.2H31.3z"/>
<path fill="#444444" d="M30.9,61.4c-0.1,0-0.2-0.1-0.2-0.2c0,0-0.1-0.8,0.4-1.3c0.3-0.4,0.8-0.5,1.5-0.4c0.1,0,0.2,0.1,0.2,0.3
	c0,0.1-0.1,0.2-0.3,0.2c-0.5,0-0.9,0.1-1.1,0.3c-0.3,0.3-0.3,0.9-0.3,0.9C31.2,61.3,31.1,61.4,30.9,61.4
	C30.9,61.4,30.9,61.4,30.9,61.4z"/>
<path fill="#444444" d="M82.3,116.5c-1.1,0-2.2-0.3-3.2-0.9c-0.9-0.5-1.6-1.2-2.2-2.1c-0.6-0.9-0.9-1.8-1-2.8c0,0,0-0.1,0-0.1v-1.2
	l0.1-0.3c0-0.1,0.1-0.3,0.1-0.4c0.3-1.1,0.9-2,1.8-2.6c0.9-0.6,2-0.9,3.2-0.7c0,0,0.1,0,0.1,0c0.2-0.2,0.5-0.5,0.7-0.7
	c0.2-0.2,0.4-0.4,0.7-0.7c0.1-0.1,0.3-0.3,0.5-0.4c0.5-0.2,1.1,0,1.5,0.3c0.3,0.3,0.6,0.6,0.9,0.9l0.2,0.2l0.2-0.1
	c0.3-0.2,0.6-0.4,0.8-0.6c0,0,0.1-0.1,0.1-0.1c0.2-0.1,0.3-0.2,0.3-0.4c0-0.7,0.3-1.4,1-1.8c0.2-0.2,0.5-0.3,0.7-0.4
	c0.1,0,0.2-0.1,0.3-0.1c0,0,0.1,0,0.1,0h0.8c0,0,0,0,0.1,0l0.4,0.1c0.6,0.2,1.2,0.4,1.7,0.5c0.8,0.2,1.3,0.7,1.6,1.4
	c0.4,0.8,0.3,1.7-0.2,2.5c-0.4,0.5-0.9,0.8-1.5,0.9c-0.1,0-0.2-0.1-0.3-0.2l-0.1-0.3c-0.1-0.1-0.1-0.3-0.2-0.4c-0.1-0.4,0-0.7,0.3-1
	c0.2-0.1,0.3-0.6,0.2-0.8c-0.1-0.2-0.3-0.4-0.5-0.4c-0.3-0.1-0.5-0.1-0.8-0.2c-0.2,0-0.3-0.1-0.5-0.1c-0.3-0.1-0.5-0.1-0.7-0.1
	c-0.2,0-0.4,0.1-0.5,0.2c0.2,0.2,0.3,0.5,0.2,0.7c0,0,0,0,0,0c0.1,0,0.2,0.1,0.3,0.1l0.2,0.1c0.1,0,0.1,0.1,0.2,0.2
	c0,0.1,0,0.2,0,0.2c-0.2,0.3-0.3,0.7-0.2,1.2c0,0.1,0,0.2-0.1,0.2s-0.1,0.1-0.2,0.1c-0.5-0.1-1-0.3-1.5-0.7
	c-0.3,0.2-0.5,0.4-0.8,0.6l0.1,0.1c0.3,0.3,0.6,0.6,0.9,0.9l0.1,0.1c0.2,0.2,0.4,0.4,0.6,0.7c0.3,0.5,0.2,1.2-0.2,1.6
	c-0.4,0.4-0.9,0.8-1.3,1.3l-0.1,0.1c0,0,0,0.1,0,0.1c0.1,0.8,0.1,1.4-0.1,2c-0.3,1-0.8,1.8-1.6,2.4c-0.8,0.6-1.6,0.9-2.6,0.9
	C82.5,116.5,82.4,116.5,82.3,116.5z M76.3,110.4c0,0,0,0.1,0,0.1c0.1,0.9,0.4,1.8,1,2.6c0.6,0.8,1.2,1.5,2,2c1,0.6,2.1,0.9,3.2,0.9
	c0.9,0,1.6-0.3,2.3-0.8c0.7-0.5,1.2-1.2,1.5-2.1c0.2-0.5,0.2-1.1,0.1-1.8c0-0.2,0-0.4,0.2-0.5l0.1-0.1c0.4-0.4,0.8-0.9,1.3-1.3
	c0.3-0.2,0.3-0.6,0.1-0.9c-0.1-0.2-0.3-0.4-0.5-0.6l-0.1-0.1c-0.3-0.3-0.6-0.6-0.9-0.9l-0.4-0.3c-0.1-0.1-0.1-0.1-0.1-0.2
	s0-0.1,0.1-0.2c0.4-0.3,0.8-0.6,1.2-0.9c0.1-0.1,0.2-0.1,0.3,0c0.3,0.3,0.6,0.5,1,0.6c0-0.3,0-0.6,0.2-1c-0.1,0-0.1,0-0.2-0.1
	c-0.1-0.1-0.3-0.3-0.3-0.5c0-0.2,0-0.4-0.2-0.5c-0.1-0.1-0.1-0.2-0.1-0.3c0.3-0.5,0.6-0.7,1.1-0.6c0.3,0,0.5,0.1,0.8,0.1
	c0.2,0.1,0.4,0.1,0.6,0.1c0.2,0.1,0.5,0.1,0.7,0.2c0.4,0.1,0.7,0.3,0.9,0.7c0.2,0.4,0,1.1-0.3,1.4c-0.2,0.2-0.2,0.3-0.1,0.4
	c0.1,0.1,0.1,0.3,0.2,0.4l0,0.1c0.4-0.1,0.7-0.3,0.9-0.6c0.4-0.6,0.5-1.3,0.2-2c-0.2-0.5-0.7-0.9-1.3-1.1c-0.6-0.2-1.2-0.4-1.7-0.5
	l-0.4-0.1H89c-0.1,0-0.2,0.1-0.2,0.1c-0.2,0.1-0.4,0.2-0.6,0.3c-0.4,0.3-0.8,0.7-0.8,1.4c0,0.5-0.3,0.7-0.5,0.8c0,0-0.1,0.1-0.1,0.1
	c-0.3,0.2-0.6,0.4-0.8,0.6l-0.4,0.3c-0.1,0.1-0.2,0.1-0.3,0l-0.3-0.3c-0.3-0.3-0.6-0.6-0.9-0.9c-0.3-0.3-0.6-0.3-1-0.2
	c-0.1,0-0.2,0.2-0.3,0.2c-0.2,0.2-0.4,0.4-0.7,0.7c-0.2,0.2-0.5,0.5-0.7,0.7c-0.1,0.1-0.3,0.2-0.5,0.2c-1-0.1-2,0.1-2.8,0.6
	c-0.8,0.5-1.3,1.3-1.6,2.3c0,0.1-0.1,0.3-0.1,0.4l-0.1,0.3L76.3,110.4z"/>
<path fill="#444444" d="M82.4,114.5c-0.6,0-1.1-0.2-1.6-0.3c-0.6-0.2-1.2-0.6-1.6-1.1c-0.3-0.3-0.6-0.7-0.8-1
	c-0.3-0.5-0.5-1.1-0.6-1.7c0-0.1,0-0.3,0-0.4l0-0.1c-0.1-0.8,0.2-1.4,0.7-2c0.4-0.4,0.8-0.6,1.4-0.7c1-0.2,2.1,0.1,3.1,0.9
	c0.7,0.5,1.3,1.2,1.7,2c0.3,0.6,0.4,1.2,0.4,1.7c-0.1,1.4-0.8,2.3-2,2.5C82.8,114.5,82.6,114.5,82.4,114.5z M80.5,107.7
	c-0.2,0-0.3,0-0.5,0c-0.5,0.1-0.8,0.2-1.1,0.5c-0.4,0.5-0.6,1-0.6,1.6c0,0,0,0,0,0l0,0.1c0,0.1,0,0.2,0,0.3c0.1,0.6,0.3,1.1,0.6,1.5
	c0.2,0.3,0.5,0.7,0.7,0.9c0.4,0.4,0.9,0.7,1.5,1c0.5,0.2,1.2,0.4,1.9,0.3c1.1-0.2,1.6-0.9,1.7-2.1c0-0.5-0.1-1-0.3-1.5
	c-0.3-0.7-0.8-1.4-1.5-1.8C82,108,81.2,107.7,80.5,107.7z"/>
<path fill="#444444" d="M92.6,123.3c-0.8,0-1.5-0.2-2.3-0.5c-0.7-0.3-1.2-0.6-1.7-1.1c-0.7-0.6-1.1-1.4-1.3-2.3
	c-0.3-1.1-0.1-2.2,0.5-3.2c0.1-0.2,0.3-0.4,0.4-0.6c0.1-0.1,0.2-0.2,0.3-0.3c0-0.3-0.1-0.5-0.1-0.8c-0.1-0.4-0.1-0.8-0.2-1.2
	c-0.1-0.7,0.4-1.3,1.1-1.4l2-0.3l0.2-1.5c-0.7-0.3-1.1-0.8-1.4-1.4c-0.2-0.6-0.5-1.2-0.7-1.9c-0.4-1.3,0-2.3,1.2-3
	c0.3-0.2,0.6,0,0.7,0.1c0.3,0.3,0.5,0.6,0.6,1.1c0,0.1,0,0.2-0.1,0.2c-0.1,0.1-0.1,0.1-0.2,0.2c-0.1,0.1-0.2,0.2-0.3,0.3
	c-0.1,0.1-0.1,0.3,0,0.3c0.2,0.6,0.4,1.2,0.6,1.7l0.1,0.2c0.2-0.1,0.3-0.2,0.5-0.2c0.2,0,0.4,0,0.5,0.1c0-0.1,0-0.1,0-0.2
	c0-0.1-0.1-0.2-0.1-0.3c0-0.2-0.1-0.3-0.2-0.5c-0.1-0.2,0-0.4,0.2-0.6c0.3-0.2,0.5-0.5,0.7-1c0,0,0-0.1,0.1-0.1l0-0.1
	c0-0.1,0.1-0.1,0.2-0.1c0.1,0,0.2,0.1,0.2,0.2l0,0.1c0.1,0.1,0.1,0.3,0.1,0.4c0,0.1,0.1,0.3,0.2,0.4c0.1,0.4,0.3,0.8,0.4,1.2
	c0.2,0.7,0,1.5-0.6,2.1c-0.3,0.4-0.7,0.6-1,0.7c0,0.3-0.1,0.7-0.1,1l0,0.2l0.1,0c0.4-0.1,0.8-0.1,1.3-0.2c0.2,0,0.5-0.1,0.7,0
	c0.5,0.1,0.8,0.5,0.9,1.1l0.1,0.4c0.1,0.5,0.2,1,0.2,1.5c0,0,0,0,0,0c0.1,0.1,0.3,0.2,0.4,0.3c0.3,0.2,0.6,0.5,0.9,0.7
	c0.6,0.6,1,1.3,1.1,2c0,0.2,0,0.4,0,0.5c0,0.1,0,0.2,0,0.3c0.1,1.1-0.3,2-1.2,3.1c-0.7,0.8-1.6,1.5-2.8,1.9c-0.5,0.2-1,0.3-1.6,0.3
	C93.2,123.2,92.9,123.3,92.6,123.3z M90.8,104.2c-1,0.7-1.3,1.4-0.9,2.5c0.2,0.7,0.5,1.3,0.7,1.9c0.2,0.5,0.6,0.9,1.1,1.1
	c0.2,0.1,0.4,0.3,0.3,0.5l-0.2,1.7c0,0.1-0.1,0.2-0.2,0.2l-2.2,0.3c-0.5,0.1-0.8,0.5-0.7,0.8c0.1,0.4,0.1,0.8,0.2,1.1
	c0,0.3,0.1,0.5,0.1,0.8c0,0.1,0,0.3-0.1,0.4c-0.1,0.1-0.2,0.2-0.3,0.3c-0.1,0.2-0.3,0.4-0.4,0.5c-0.6,0.9-0.7,1.9-0.5,2.9
	c0.2,0.8,0.6,1.5,1.2,2c0.5,0.4,1,0.8,1.6,1c1,0.4,1.9,0.5,2.9,0.4c0.6-0.1,1.1-0.2,1.5-0.3c1.1-0.4,1.9-0.9,2.6-1.7
	c0.8-1,1.1-1.8,1.1-2.7c0-0.1,0-0.2,0-0.3c0-0.2,0-0.3,0-0.4c-0.1-0.6-0.5-1.2-1-1.7c-0.3-0.2-0.6-0.5-0.9-0.7
	c-0.1-0.1-0.3-0.2-0.4-0.3c-0.1-0.1-0.2-0.1-0.2-0.3c-0.1-0.5-0.2-1-0.3-1.5l-0.1-0.4c0-0.3-0.2-0.6-0.5-0.7c-0.2,0-0.4,0-0.5,0
	c-0.4,0.1-0.8,0.1-1.2,0.2l-0.4,0.1c-0.1,0-0.2,0-0.2-0.1c-0.1-0.1-0.1-0.1-0.1-0.2l0-0.1c0-0.1,0-0.1,0-0.2l0-0.2
	c0-0.4,0.1-0.7,0.1-1.1c0-0.1,0.1-0.3,0.3-0.3c0.3-0.1,0.6-0.3,0.9-0.6c0.4-0.5,0.6-1.1,0.5-1.7c-0.1-0.4-0.2-0.7-0.4-1.1
	c0-0.1-0.1-0.2-0.1-0.3c-0.1,0.3-0.4,0.6-0.7,0.9c0.1,0.2,0.1,0.3,0.2,0.5c0,0.1,0.1,0.2,0.1,0.3c0.1,0.3,0,0.6-0.2,0.9
	c-0.1,0.1-0.1,0.1-0.2,0.1c-0.1,0-0.1,0-0.2-0.1c-0.1-0.1-0.2-0.2-0.4-0.2c-0.2,0-0.3,0.1-0.4,0.3c0,0.1-0.1,0.1-0.2,0.1
	c-0.1,0-0.2-0.1-0.2-0.1l0-0.1c0-0.1-0.1-0.1-0.1-0.2l-0.1-0.4c-0.2-0.6-0.4-1.2-0.6-1.8c-0.1-0.2,0-0.5,0.1-0.7
	c0.1-0.2,0.2-0.3,0.4-0.4c0,0,0,0,0.1,0c-0.1-0.3-0.2-0.5-0.4-0.6C90.9,104.2,90.8,104.2,90.8,104.2z M92.8,121.5
	C92.8,121.5,92.8,121.5,92.8,121.5c-1.1,0-1.9-0.3-2.7-0.8c-0.8-0.6-1.1-1.3-1.1-2.1c0-0.5,0.2-1,0.6-1.5c0.7-0.9,1.6-1.4,2.8-1.7
	c1-0.2,2-0.1,2.9,0.3c1,0.5,1.6,1.2,1.7,2.2c0.1,0.5-0.1,1.1-0.5,1.6c-0.5,0.7-1.1,1.2-2,1.5C94,121.4,93.4,121.5,92.8,121.5
	C92.8,121.5,92.8,121.5,92.8,121.5z M93.5,115.8c-0.3,0-0.6,0-0.9,0.1c-1.1,0.2-2,0.7-2.5,1.5c-0.3,0.4-0.5,0.8-0.5,1.2
	c0,0.7,0.3,1.2,0.9,1.7c0.6,0.5,1.4,0.7,2.4,0.7c0.5,0,1.1-0.1,1.6-0.3c0.8-0.3,1.4-0.8,1.8-1.4c0.3-0.5,0.4-0.9,0.4-1.3
	c-0.1-0.8-0.6-1.4-1.4-1.8C94.6,116,94.1,115.8,93.5,115.8z"/>
<path fill="#444444" d="M92.5,113.1c0.2,0,0.4,0.2,0.4,0.4c0,0.2-0.1,0.3-0.2,0.4l0.1,0.6l-0.4,0l-0.1-0.5c-0.1-0.1-0.2-0.2-0.3-0.3
	C92.1,113.3,92.3,113.1,92.5,113.1C92.5,113.1,92.5,113.1,92.5,113.1 M92.5,112.6c0,0-0.1,0-0.1,0c-0.5,0.1-0.9,0.5-0.8,1
	c0,0.2,0.1,0.4,0.3,0.6l0,0.3c0,0.3,0.2,0.4,0.5,0.4c0,0,0,0,0.1,0l0.4,0c0.1,0,0.3-0.1,0.3-0.2c0.1-0.1,0.1-0.2,0.1-0.4l0-0.3
	c0.1-0.2,0.2-0.4,0.1-0.6C93.4,112.9,93,112.6,92.5,112.6L92.5,112.6z"/>
<path fill="#444444" d="M84.8,106.6c0.1,0,0.2,0,0.3,0.1c0.2,0.2,0.1,0.4,0,0.6c-0.1,0.1-0.2,0.1-0.3,0.1c0,0-0.1,0-0.1,0l-0.4,0.4
	l-0.3-0.3l0.4-0.4c0-0.1,0-0.3,0.1-0.4C84.6,106.7,84.7,106.6,84.8,106.6 M84.8,106.1C84.8,106.1,84.8,106.1,84.8,106.1
	c-0.2,0-0.5,0.1-0.6,0.3c-0.2,0.2-0.3,0.4-0.3,0.6l-0.2,0.2c-0.2,0.2-0.2,0.5,0,0.7l0.3,0.3c0.1,0.1,0.2,0.2,0.4,0.2c0,0,0,0,0,0
	c0.1,0,0.3,0,0.3-0.1l0.2-0.2c0.2,0,0.4-0.1,0.6-0.2c0.4-0.4,0.4-0.9,0-1.3C85.3,106.2,85,106.1,84.8,106.1L84.8,106.1z"/>
<path fill="#444444" d="M61.5,157.8c-0.2,0-0.4-0.1-0.6-0.3c-0.5-0.5-0.7-1.7-0.6-1.9c0.3-0.9,1.1-0.9,1.6-0.8c0,0,0,0,0,0
	c0.6,0,7-2,10.9-3.2c0.8-0.2,4.9-1.9,4.9-1.9c0.5-0.2,4.7-1.8,4.7-1.8c2.5-1.2,12.2-4.4,16.3-5.7l0.2-0.1c1.6-0.5,2.8-0.6,3.8-0.1
	c1,0.5,1.2,1.4,1.2,1.4c0.5,2.4-1.7,3.5-2.9,3.8l-6.3,1.9c-1.4,0.4-5.7,1.3-12.7,2.9l-1.9,0.4c-0.6,0.1-8.2,1.9-8.2,1.9
	c-1.3,0.2-8.3,2.6-9.2,2.9c-0.3,0.5-1,0.6-1,0.6C61.6,157.8,61.5,157.8,61.5,157.8z M61.5,155.3c-0.2,0-0.6,0.1-0.7,0.5
	c0,0.2,0.1,1.1,0.5,1.4c0.1,0.1,0.2,0.1,0.3,0.1c0.2,0,0.6-0.1,0.7-0.4c0-0.1,0.1-0.1,0.1-0.1c0.3-0.1,7.9-2.7,9.4-2.9
	c0.3-0.1,7.6-1.8,8.2-1.9l1.9-0.4c7-1.6,11.3-2.5,12.7-2.9l6.3-1.9c0.1,0,3.1-0.7,2.6-3.2c0,0-0.2-0.7-1-1.1
	c-0.8-0.4-1.9-0.4-3.4,0.1c0,0,0,0,0,0l-0.2,0.1c-4,1.3-13.7,4.6-16.3,5.7c-0.2,0.1-4.2,1.7-4.7,1.8c-0.1,0.1-4.1,1.7-4.9,1.9
	c-2.5,0.8-10.5,3.3-11.2,3.2C61.8,155.3,61.6,155.3,61.5,155.3z"/>
<path fill="#444444" d="M80.9,152.2c-0.1,0-0.1,0-0.2-0.1c-0.7-0.6-0.9-2.7-1-2.9c0-0.1,0.1-0.3,0.2-0.3c0.1,0,0.3,0.1,0.3,0.2
	c0.1,0.6,0.3,2.2,0.8,2.6c0.1,0.1,0.1,0.2,0,0.4C81,152.2,81,152.2,80.9,152.2z"/>
<path fill="#444444" d="M81.7,151.9c-0.1,0-0.2,0-0.2-0.1c-0.5-0.7-0.9-2.8-0.9-2.9c0-0.1,0.1-0.3,0.2-0.3c0.1,0,0.3,0.1,0.3,0.2
	c0.1,0.6,0.4,2.2,0.8,2.7c0.1,0.1,0.1,0.3-0.1,0.3C81.8,151.9,81.8,151.9,81.7,151.9z"/>
<path fill="#444444" d="M62.4,157.3C62.3,157.3,62.3,157.3,62.4,157.3c-0.9-0.3-1.3-1.2-0.9-2.3c0-0.1,0.2-0.2,0.3-0.2
	c0.1,0,0.2,0.1,0.2,0.3c0,0,0,0.1,0,0.1c-0.3,0.9-0.1,1.4,0.5,1.6c0.1,0,0.2,0.2,0.1,0.3C62.6,157.2,62.5,157.3,62.4,157.3z"/>
<path fill="#444444" d="M94.1,136.9c0.3,0,0.5,0,0.8,0.1c0.4,0.1,0.7,0.4,1,0.7c0,0,0,0.1,0,0.1c0,0-0.1,0.1-0.1,0.1c0,0,0,0-0.1,0
	c0,0-0.1,0-0.1-0.1c0,0,0,0-0.1,0c0,0,0,0-0.1,0c0,0,0,0.1,0,0.1c0.1,0,0.1,0.1,0.2,0.1c0,0,0,0,0,0c0,0,0,0,0,0
	c0,0.1-0.1,0.1-0.1,0.2c-0.1,0-0.2-0.1-0.2-0.1c0,0,0,0-0.1,0c0,0,0,0-0.1,0c0,0.1,0,0.1,0.1,0.1c0.1,0,0.2,0.1,0.2,0.1
	c0,0.1,0,0.1-0.1,0.2c-0.1,0-0.2,0-0.2-0.1c0,0,0,0,0,0c0,0,0,0,0,0c0,0-0.1,0-0.1,0.1c0,0,0,0.1,0,0.1c0.1,0,0.2,0.1,0.3,0.1
	c0,0.1,0,0.1,0,0.2c-0.1,0-0.1,0-0.2,0c0,0-0.1,0-0.1,0c0,0,0,0,0,0c0,0,0,0,0,0c0,0,0,0,0,0c0,0,0,0.1,0,0.1c0,0,0,0.1,0.1,0.1
	c0,0,0.1,0,0.1,0c0.1,0,0.1,0,0.2,0c0,0.1,0,0.2,0,0.2c-0.1,0-0.2,0-0.3,0c-0.1,0-0.1,0-0.1,0.1c0,0.1,0,0.1,0.1,0.1c0,0,0,0,0,0
	c0.1,0,0.2,0,0.3,0c0,0,0,0,0,0c0,0,0.1,0,0.1,0c0,0.1,0,0.1,0.1,0.2c-0.1,0-0.2,0-0.3,0c-0.1,0-0.1,0-0.1,0.1c0,0,0,0.1,0.1,0.1
	c0,0,0,0,0,0c0.1,0,0.2,0,0.3,0c0,0,0,0,0,0c0,0,0,0,0.1,0c0,0,0.1,0.1,0.1,0.2c-0.1,0-0.1,0.1-0.2,0.1c0,0-0.1,0-0.1,0.1
	c0,0,0,0,0.1,0c0,0,0,0,0.1,0c0,0,0.1,0,0.1-0.1c0,0,0.1,0,0.1,0c0,0,0.1,0,0.1,0.1c0,0,0.1,0.1,0.1,0.1c-0.4,0.7-1.2,1.1-1.9,1.1
	c-0.4,0-0.9-0.1-1.2-0.4c0.1,0,0.1-0.1,0.2-0.1c0,0,0,0,0,0c0,0,0,0,0,0c0,0,0.1,0.1,0.1,0.1c0,0,0,0,0,0c0,0,0.1-0.1,0.1-0.1
	c0-0.1-0.1-0.1-0.1-0.2c0.1,0,0.1-0.1,0.2-0.1c0,0,0.1,0.1,0.1,0.1c0,0,0.1-0.1,0.1-0.1c0,0-0.1-0.1-0.1-0.1c0,0,0.1-0.1,0.1-0.1
	c0,0,0,0,0,0c0,0,0,0,0,0c0,0,0.1,0,0.1,0c0,0,0.1-0.1,0.1-0.1c0,0-0.1-0.1-0.2-0.1c0-0.1,0.1-0.1,0.1-0.2c0.1,0,0.1,0,0.2,0.1
	c0,0,0,0,0,0c0,0,0,0,0,0c0,0,0,0,0,0c0,0,0.1-0.1,0.1-0.1c0,0,0,0-0.1,0c-0.1,0-0.2-0.1-0.2-0.1c0-0.1,0-0.1,0.1-0.2c0,0,0,0,0.1,0
	c0,0,0,0,0,0c0.1,0,0.2,0,0.2,0.1c0,0,0,0,0,0c0,0,0.1,0,0.1-0.1c0-0.1,0-0.1-0.1-0.1c-0.1,0-0.2-0.1-0.3-0.1c0-0.1,0-0.1,0-0.2
	c0,0,0,0,0.1,0c0,0,0.1,0,0.1,0c0,0,0.1,0,0.1,0c0,0,0,0,0,0c0.1,0,0.1,0,0.1-0.1c0-0.1,0-0.1-0.1-0.1c0,0,0,0,0,0
	c-0.1,0-0.1,0-0.2,0c0,0-0.1,0-0.1,0c0,0-0.1,0-0.1-0.1c0-0.1,0-0.1,0-0.2c0.1,0,0.2,0,0.3,0c0.1,0,0.1,0,0.1-0.1c0,0,0-0.1-0.1-0.1
	c0,0,0,0,0,0c-0.1,0-0.2,0-0.3,0c0,0,0,0,0,0c0,0,0,0-0.1,0c0-0.1,0-0.1-0.1-0.2c0.1,0,0.1,0,0.2,0c0,0,0.1,0,0.1,0
	c0,0,0.1,0,0.1-0.1c0,0,0-0.1-0.1-0.1c0,0,0,0,0,0c-0.1,0-0.2,0-0.3,0.1c0,0,0,0,0,0c0,0,0,0-0.1,0c0-0.1-0.1-0.1-0.1-0.2
	c0.1,0,0.1-0.1,0.2-0.1c0,0,0.1,0,0.1,0c0,0,0-0.1,0-0.1c0,0-0.1,0-0.1,0c0,0,0,0,0,0c-0.1,0-0.2,0.1-0.2,0.1c0,0,0,0,0,0
	c0,0,0,0-0.1,0c0,0-0.1-0.1-0.1-0.1c0.1-0.1,0.2-0.1,0.2-0.2c0,0,0.1-0.1,0-0.1c0,0,0,0-0.1,0c0,0-0.1,0-0.1,0
	c-0.1,0.1-0.1,0.1-0.2,0.2c0,0,0,0,0,0c0,0,0,0,0,0c0,0-0.1-0.1-0.2-0.1c0.1-0.1,0.1-0.1,0.2-0.2c0,0,0.1-0.1,0-0.1c0,0,0,0-0.1,0
	c0,0,0,0-0.1,0c-0.1,0.1-0.1,0.1-0.2,0.2c0,0,0,0-0.1,0c0,0,0,0,0,0c-0.1,0-0.1-0.1-0.2-0.1c0.1-0.1,0.2-0.2,0.3-0.2
	C93.4,137,93.8,136.9,94.1,136.9 M92.6,137.5C92.6,137.5,92.6,137.5,92.6,137.5c0.1,0,0.2,0,0.3,0.1c0,0-0.1,0-0.1,0.1
	c0,0,0,0.1,0,0.1c0,0,0.1,0,0.1,0c0,0,0,0,0,0c0,0,0.1-0.1,0.1-0.1c0,0,0,0,0,0c0.1,0,0.1,0.1,0.2,0.1c0,0-0.1,0.1-0.1,0.1
	c0,0,0,0.1,0,0.1c0,0,0,0,0.1,0c0,0,0,0,0.1,0c0,0,0.1-0.1,0.1-0.1c0,0,0.1,0.1,0.1,0.1c0,0,0,0,0,0.1c0,0-0.1,0-0.1,0.1
	c0,0-0.1,0.1,0,0.1c0,0,0,0,0.1,0c0,0,0,0,0,0c0,0,0,0,0,0c0,0,0.1-0.1,0.1-0.1c0,0,0,0,0,0c0.1,0,0.1,0.1,0.1,0.2c0,0-0.1,0-0.1,0
	c0,0-0.1,0.1-0.1,0.1c0,0,0,0.1,0.1,0.1c0,0,0,0,0,0c0,0,0,0,0,0c0,0,0.1,0,0.1,0c0,0,0,0,0,0c0,0.1,0.1,0.1,0.1,0.2
	c0,0-0.1,0-0.1,0c0,0-0.1,0-0.1,0.1c0,0.1,0,0.1,0.1,0.1c0.1,0,0.1,0,0.2,0.2c0,0,0,0.1,0,0.1c0,0,0,0-0.1,0c0,0,0,0,0,0
	c0,0,0,0,0,0c-0.1,0-0.1,0-0.1,0.1c0,0.1,0.1,0.1,0.1,0.1c0,0,0,0,0,0c0,0,0,0,0.1,0c0,0.1,0,0.1,0,0.2c-0.1,0-0.1,0-0.1,0
	c0,0,0,0,0,0c0,0-0.1,0-0.1,0.1c0,0.1,0,0.1,0.1,0.1c0.2,0,0.2,0,0.1,0.2c0,0,0,0,0,0c-0.1,0-0.1,0-0.1-0.1c0,0,0,0,0,0
	c0,0-0.1,0-0.1,0.1c0,0.1,0,0.1,0.1,0.1c0,0,0.1,0,0.1,0.1c0,0.1-0.1,0.1-0.1,0.2c0,0,0,0,0,0c0,0,0,0,0,0c-0.1,0-0.1-0.1-0.1-0.1
	c0,0,0,0-0.1,0c0,0,0,0-0.1,0c0,0,0,0.1,0,0.1c0.1,0,0.1,0.1,0.2,0.1c0,0-0.1,0.1-0.1,0.1c0,0,0,0,0,0c0,0,0,0,0,0
	c0,0-0.1-0.1-0.1-0.1c0,0,0,0-0.1,0c0,0,0,0-0.1,0c0,0,0,0.1,0,0.1c0,0,0.1,0.1,0.1,0.1c-0.1,0-0.1,0.1-0.2,0.1c0,0,0,0,0,0
	c0,0,0,0,0,0c0,0-0.1-0.1-0.1-0.1c0,0,0,0-0.1,0c0,0,0,0,0,0c0,0,0,0,0,0c0,0,0,0.1,0,0.1c0,0,0,0.1,0.1,0.1c-0.1,0-0.1,0.1-0.2,0.1
	c0,0,0,0,0,0c0,0,0,0-0.1,0c-0.6-0.5-0.8-1.1-0.8-1.9C92,138.4,92.2,137.9,92.6,137.5C92.6,137.5,92.6,137.5,92.6,137.5 M96,137.9
	c0.4,0.6,0.5,1.6,0.1,2.3c0,0-0.1-0.1-0.1-0.1c0,0,0.1,0,0.1-0.1c0,0,0-0.1,0-0.1c0,0-0.1,0-0.1,0c0,0,0,0,0,0c0,0,0,0,0,0
	c-0.1,0-0.1,0-0.1,0c0,0-0.1,0-0.1-0.1c0,0,0,0,0-0.1c0,0,0.1,0,0.1,0c0,0,0.1-0.1,0.1-0.1c0,0,0,0-0.1-0.1c0,0,0,0,0,0c0,0,0,0,0,0
	c0,0-0.1,0-0.1,0c0,0,0,0,0,0c0,0-0.1-0.1-0.1-0.2c0,0,0.1,0,0.1,0c0,0,0.1,0,0.1-0.1c0,0,0-0.1-0.1-0.1c0,0,0,0,0,0
	c0,0-0.1,0-0.1,0c0-0.1,0-0.1,0-0.2c0,0,0.1,0,0.1,0c0,0,0.1,0,0.1-0.1c0,0,0-0.1-0.1-0.1c0,0,0,0,0,0c0,0,0,0-0.1,0
	c0-0.1,0-0.1,0-0.2c0,0,0.1,0,0.1,0c0,0,0,0,0,0c0,0,0.1,0,0.1-0.1c0-0.1,0-0.1-0.1-0.1c0,0-0.1,0-0.1,0c0-0.1,0-0.1,0.1-0.2
	c0,0,0.1,0,0.1,0c0,0,0.1,0,0.1,0c0,0,0,0,0.1-0.1c0-0.1-0.1-0.1-0.1-0.1c0,0,0,0-0.1,0c0,0,0,0,0,0c0-0.1,0.1-0.1,0.1-0.1
	c0,0,0.1,0,0.1,0.1c0,0,0,0,0,0c0,0,0,0,0,0c0,0,0.1,0,0.1,0c0,0,0-0.1,0-0.1c0,0-0.1,0-0.2-0.1C95.9,137.9,95.9,137.9,96,137.9
	 M94.1,136.4C94.1,136.4,94.1,136.4,94.1,136.4c-0.4,0-0.9,0.1-1.3,0.3c-0.1,0.1-0.2,0.1-0.3,0.2l-0.1,0.1c-0.1,0-0.1,0.1-0.1,0.1
	c0,0-0.1,0.1-0.1,0.1c-0.5,0.5-0.7,1-0.8,1.7c-0.1,0.9,0.3,1.7,0.9,2.3c0,0,0.1,0.1,0.2,0.1c0,0,0,0,0.1,0.1c0.4,0.3,1,0.5,1.5,0.5
	c1,0,1.9-0.5,2.3-1.3c0,0,0,0,0,0c0,0,0,0,0,0c0.5-0.8,0.5-2.1-0.1-2.8c0,0,0,0,0,0c0,0,0-0.1-0.1-0.1c-0.3-0.4-0.7-0.7-1.2-0.9
	C94.8,136.4,94.4,136.4,94.1,136.4L94.1,136.4L94.1,136.4z"/>
<path fill="#444444" d="M102,145.8c-0.1,0-0.1,0-0.2-0.1c-0.1-0.1-0.1-0.3,0-0.4c0.2-0.1,0.7-0.6,0.6-1c0-0.1,0.1-0.3,0.2-0.3
	c0.1,0,0.3,0.1,0.3,0.2c0.2,0.7-0.7,1.4-0.8,1.5C102.1,145.8,102.1,145.8,102,145.8z"/>
<path fill="#444444" d="M86.2,78.2c-0.1,0-0.2-0.1-0.2-0.2c0-0.1,0.1-0.3,0.2-0.3l5.4-0.9c0.1,0,0.3,0.1,0.3,0.2
	c0,0.1-0.1,0.3-0.2,0.3L86.2,78.2C86.3,78.2,86.2,78.2,86.2,78.2z"/>
<path fill="#444444" d="M91.7,78.2C91.6,78.2,91.6,78.2,91.7,78.2l-5.5-0.9C86,77.2,86,77.1,86,77c0-0.1,0.2-0.2,0.3-0.2l5.4,0.9
	c0.1,0,0.2,0.2,0.2,0.3C91.9,78.1,91.8,78.2,91.7,78.2z"/>
<path fill="#444444" d="M86.2,76.5c-0.1,0-0.2-0.1-0.2-0.2c0-0.1,0.1-0.3,0.2-0.3l5.4-0.9c0.1,0,0.3,0.1,0.3,0.2
	c0,0.1-0.1,0.3-0.2,0.3L86.2,76.5C86.2,76.5,86.2,76.5,86.2,76.5z"/>
<path fill="#444444" d="M91.6,76.5C91.6,76.5,91.6,76.5,91.6,76.5l-5.5-0.9c-0.1,0-0.2-0.2-0.2-0.3s0.2-0.2,0.3-0.2l5.4,0.9
	c0.1,0,0.2,0.2,0.2,0.3C91.8,76.4,91.7,76.5,91.6,76.5z"/>
<path fill="#444444" d="M85.7,81.8c-0.1,0-0.2-0.1-0.2-0.2v-2c0-0.1,0.1-0.2,0.2-0.2s0.2,0.1,0.2,0.2v2C86,81.7,85.9,81.8,85.7,81.8
	z"/>
<path fill="#444444" d="M87.7,81.8c-0.1,0-0.2-0.1-0.2-0.2v-2c0-0.1,0.1-0.2,0.2-0.2s0.2,0.1,0.2,0.2v2
	C87.9,81.7,87.8,81.8,87.7,81.8z"/>
<path fill="#444444" d="M89.8,81.8c-0.1,0-0.2-0.1-0.2-0.2v-2c0-0.1,0.1-0.2,0.2-0.2s0.2,0.1,0.2,0.2v2C90,81.7,89.9,81.8,89.8,81.8
	z"/>
<path fill="#444444" d="M91.9,81.8c-0.1,0-0.2-0.1-0.2-0.2v-2c0-0.1,0.1-0.2,0.2-0.2s0.2,0.1,0.2,0.2v2C92.1,81.7,92,81.8,91.9,81.8
	z"/>
<path fill="#444444" d="M88.4,73.2c-1.7,0-3-0.5-3.9-1.4c-1.5-1.5-1.4-3.6-1.4-3.6c0-0.1,0.1-0.2,0.2-0.2c0,0,0,0,0,0
	c0.1,0,0.2,0.1,0.2,0.3c0,0,0,2,1.3,3.3c0.8,0.9,2.1,1.3,3.7,1.3c0,0,3.4,0,5.4-1.7c0.1-0.1,0.3-0.1,0.4,0c0.1,0.1,0.1,0.3,0,0.4
	C92.1,73.3,88.7,73.2,88.4,73.2C88.5,73.2,88.4,73.2,88.4,73.2z"/>
<path fill="#444444" d="M91.7,79.7C91.7,79.7,91.7,79.7,91.7,79.7H86c-6-0.3-5.6-9.8-5.6-10.2c0.5-7.5,6.1-7.6,6.2-7.6l0,0
	c2,0,5,0,5.2,0c0.1,0,2.1,0,3.4,1.3c0.8,0.8,1.2,1.9,1.2,3.2c0,0,0.1,0,0.1,0c0.8,0.3,1.3,0.8,1.6,1.6c1,2.4-0.8,6.3-0.9,6.4
	C95.8,79.7,91.8,79.7,91.7,79.7z M86.6,62.5c-0.2,0-5.2,0.1-5.7,7.1c0,0.1-0.3,9.3,5.1,9.6l5.8,0c0.1,0,3.7-0.1,5-4.8
	c0-0.1,1.8-3.9,0.9-6.1c-0.3-0.6-0.7-1.1-1.3-1.3c0,0-0.1,0-0.2-0.1c0,0,0,0,0,0c-0.5-0.2-1.7-0.6-2.7-0.2c-0.6,0.2-1.1,0.8-1.4,1.5
	l0,0c0,0-0.1,0.7,0.3,1.4c0.4,0.7,1.3,1.1,2.5,1.3c0.1,0,0.2,0.1,0.2,0.3s-0.2,0.2-0.3,0.2c-1.4-0.2-2.3-0.7-2.9-1.5
	c-0.6-0.9-0.4-1.8-0.4-1.9c0.4-0.9,0.9-1.5,1.7-1.8c1-0.4,2.1-0.1,2.7,0.1c-0.1-1.1-0.4-2-1.1-2.7c-1.2-1.2-3-1.2-3-1.2l0,0v0
	C91.6,62.5,90.7,62.5,86.6,62.5z"/>
<path fill="#444444" d="M86,82c-1.2-0.1-2-0.5-2.6-1.1c-0.8-1.1-0.6-2.5-0.6-2.6c0-0.1,0.2-0.2,0.3-0.2c0.1,0,0.2,0.2,0.2,0.3
	c0,0-0.2,1.3,0.5,2.2c0.4,0.6,1.2,0.9,2.2,1l5.7,0c0,0,1.4-0.1,2.1-1c0.4-0.5,0.6-1.3,0.4-2.2c0-0.1,0.1-0.3,0.2-0.3
	c0.1,0,0.3,0.1,0.3,0.2c0.2,1,0,1.9-0.5,2.6c-0.9,1.1-2.5,1.2-2.5,1.2H86z"/>
<path fill="#444444" d="M83.8,70.5c0,0-0.1,0-0.1,0c-0.4-0.2-0.9-0.4-1.1-0.2c-0.1,0.1-0.2,0.2-0.3,0.1c-0.1-0.1-0.2-0.2-0.1-0.3
	c0.4-0.7,1.6-0.1,1.7,0c0.1,0.1,0.2,0.2,0.1,0.3C83.9,70.4,83.9,70.5,83.8,70.5z"/>
<path fill="#444444" d="M84.2,64.7c0,0-0.1,0-0.1,0c-0.1-0.1-0.2-0.2-0.1-0.3c0.4-0.7,2-1.1,2.1-1.1c0.1,0,0.3,0.1,0.3,0.2
	s-0.1,0.3-0.2,0.3c-0.6,0.1-1.6,0.5-1.8,0.9C84.4,64.7,84.3,64.7,84.2,64.7z"/>
<path fill="#444444" d="M80.9,75.7c-1.9,0-3.5-0.9-4.7-2.7c-2-3.1-2-8.4,0-11.7c1.3-2.2,3.3-3.3,5.7-3.2l5.4,0c0.1,0,2.1-0.2,3.6,1
	c0.8,0.7,1.3,1.6,1.4,2.8c0,0.1-0.1,0.3-0.2,0.3c-0.1,0-0.3-0.1-0.3-0.2c-0.1-1.1-0.5-1.9-1.2-2.5c-1.3-1.1-3.2-0.9-3.2-0.9l-5.5,0
	c-2.8-0.2-4.4,1.5-5.2,2.9c-1.9,3.2-1.9,8.2,0,11.1c0.8,1.2,2.2,2.7,4.7,2.5c0.1,0,0.3,0.1,0.3,0.2c0,0.1-0.1,0.3-0.2,0.3
	C81.3,75.7,81.1,75.7,80.9,75.7z"/>
<path fill="#444444" d="M81.2,78.1c-1,0-2-0.3-2.6-0.9c-0.8-0.7-1.1-1.6-0.9-2.7c0-0.1,0.2-0.2,0.3-0.2c0.1,0,0.2,0.1,0.2,0.3
	c-0.2,1.1,0.3,1.9,0.8,2.3c0.8,0.7,2.2,1,3.4,0.7c0.1,0,0.3,0,0.3,0.2c0,0.1,0,0.3-0.2,0.3C82,78.1,81.6,78.1,81.2,78.1z"/>
<path fill="#444444" d="M47.3,158.9H23c-0.5,0-0.8-0.4-0.8-0.8v-14.9c0-0.5,0.4-0.8,0.8-0.8h24.3c0.5,0,0.8,0.4,0.8,0.8v14.9
	C48.1,158.5,47.7,158.9,47.3,158.9z M23,142.8c-0.2,0-0.3,0.1-0.3,0.3v14.9c0,0.2,0.1,0.3,0.3,0.3h24.3c0.2,0,0.3-0.1,0.3-0.3v-14.9
	c0-0.2-0.1-0.3-0.3-0.3H23z"/>
<path fill="#444444" d="M43.9,147.8c-0.9,0-1.6-0.7-1.6-1.6s0.7-1.6,1.6-1.6c0.9,0,1.6,0.7,1.6,1.6S44.8,147.8,43.9,147.8z
	 M43.9,145.1c-0.6,0-1.1,0.5-1.1,1.1s0.5,1.1,1.1,1.1c0.6,0,1.1-0.5,1.1-1.1S44.5,145.1,43.9,145.1z"/>
<path fill="#444444" d="M43.9,151.5c-0.9,0-1.6-0.7-1.6-1.6s0.7-1.6,1.6-1.6c0.9,0,1.6,0.7,1.6,1.6S44.8,151.5,43.9,151.5z
	 M43.9,148.8c-0.6,0-1.1,0.5-1.1,1.1s0.5,1.1,1.1,1.1c0.6,0,1.1-0.5,1.1-1.1S44.5,148.8,43.9,148.8z"/>
<path fill="#444444" d="M39.3,142.8c-0.1,0-0.1,0-0.2-0.1c-3.9-3.4-7.5-0.3-7.7-0.2c-0.1,0.1-0.3,0.1-0.4,0c-0.1-0.1-0.1-0.3,0-0.4
	c0,0,4.1-3.6,8.3,0.2c0.1,0.1,0.1,0.2,0,0.4C39.5,142.8,39.4,142.8,39.3,142.8z"/>
<path fill="#444444" d="M46.5,157.6h-5.2c-0.1,0-0.2-0.1-0.2-0.2v-13.5c0-0.1,0.1-0.2,0.2-0.2h5.2c0.1,0,0.2,0.1,0.2,0.2v13.5
	C46.7,157.5,46.6,157.6,46.5,157.6z M41.6,157.1h4.7v-13h-4.7V157.1z"/>
<path fill="#444444" d="M37.9,156.9H25.6c-0.9,0-1.7-0.7-1.7-1.7v-8.9c0-0.9,0.7-1.7,1.7-1.7h12.3c0.9,0,1.7,0.7,1.7,1.7v8.9
	C39.6,156.1,38.8,156.9,37.9,156.9z M25.6,145.2c-0.6,0-1.2,0.5-1.2,1.2v8.9c0,0.6,0.5,1.2,1.2,1.2h12.3c0.6,0,1.2-0.5,1.2-1.2v-8.9
	c0-0.6-0.5-1.2-1.2-1.2H25.6z"/>
<path fill="#444444" d="M45.4,154.4h-3c-0.1,0-0.2-0.1-0.2-0.2s0.1-0.2,0.2-0.2h3c0.1,0,0.2,0.1,0.2,0.2S45.5,154.4,45.4,154.4z"/>
<path fill="#444444" d="M45.4,155.4h-3c-0.1,0-0.2-0.1-0.2-0.2s0.1-0.2,0.2-0.2h3c0.1,0,0.2,0.1,0.2,0.2S45.5,155.4,45.4,155.4z"/>
<path fill="#444444" d="M45.4,156.4h-3c-0.1,0-0.2-0.1-0.2-0.2s0.1-0.2,0.2-0.2h3c0.1,0,0.2,0.1,0.2,0.2S45.5,156.4,45.4,156.4z"/>
<path fill="#444444" d="M35.5,141.2c-0.1,0-0.1,0-0.2-0.1c-0.1-0.1-0.1-0.2,0-0.4l1.6-2c0.1-0.1,0.1-0.1,0.2-0.1l2.3,0.2l-2.5-3
	c-0.1-0.1-0.1-0.2,0-0.3c0.1-0.1,0.2-0.1,0.3-0.1l2.5,1l1.2-1.1c0.1-0.1,0.3-0.1,0.4,0c0.1,0.1,0.1,0.3,0,0.4L40,137
	c-0.1,0.1-0.2,0.1-0.3,0l-1.7-0.7l2.2,2.8c0.1,0.1,0.1,0.2,0,0.3c0,0.1-0.1,0.1-0.2,0.1l-2.8-0.3l-1.5,1.9
	C35.6,141.1,35.6,141.2,35.5,141.2z"/>
<path fill="#444444" d="M41.8,135.9c-0.5,0-0.9-0.4-0.9-0.9s0.4-0.9,0.9-0.9c0.5,0,0.9,0.4,0.9,0.9S42.3,135.9,41.8,135.9z
	 M41.8,134.6c-0.2,0-0.4,0.2-0.4,0.4c0,0.2,0.2,0.4,0.4,0.4c0.2,0,0.4-0.2,0.4-0.4C42.2,134.8,42,134.6,41.8,134.6z"/>
<path fill="#444444" d="M25.5,147.5c-0.1,0-0.2-0.1-0.2-0.2c0,0,0-0.6,0.4-1c0.2-0.2,0.5-0.3,0.9-0.3c0.1,0,0.2,0.1,0.2,0.3
	c0,0.1-0.1,0.3-0.3,0.2c-0.2,0-0.4,0.1-0.5,0.2c-0.2,0.2-0.2,0.6-0.2,0.6C25.8,147.3,25.7,147.5,25.5,147.5z"/>
<path fill="#444444" d="M156.8,59.2v15.3c-5.1,0-10.3,0-15.4,0c-5.1,0-10.3,0-15.4,0c0-5.1,0-10.2,0-15.3c5.1,0,10.3,0,15.4,0H156.8
	 M156.8,58.7h-15.4c-5.1,0-10.3,0-15.4,0c-0.3,0-0.5,0.2-0.5,0.5c0,5.1,0,10.2,0,15.3c0,0.3,0.2,0.5,0.5,0.5l15.4,0l15.4,0
	c0.3,0,0.5-0.2,0.5-0.5V59.2C157.3,58.9,157.1,58.7,156.8,58.7L156.8,58.7z"/>
<path fill="#444444" d="M147.7,58.9h-12.6c-0.1,0-0.2-0.1-0.2-0.2v-1.8c0-0.1,0.1-0.2,0.2-0.2h12.6c0.1,0,0.2,0.1,0.2,0.2v1.8
	C147.9,58.8,147.8,58.9,147.7,58.9z M135.3,58.4h12.1v-1.3h-12.1V58.4z"/>
<path fill="#444444" d="M131.4,72.5c-2.5,0-4.5-2-4.5-4.5c0-2.5,2-4.5,4.5-4.5s4.5,2,4.5,4.5C135.9,70.5,133.9,72.5,131.4,72.5z
	 M131.4,64.1c-2.2,0-4,1.8-4,4c0,2.2,1.8,4,4,4s4-1.8,4-4C135.4,65.9,133.6,64.1,131.4,64.1z"/>
<path fill="#444444" d="M131.4,70.7c-1.5,0-2.7-1.2-2.7-2.7c0-1.5,1.2-2.7,2.7-2.7c1.5,0,2.7,1.2,2.7,2.7
	C134.1,69.5,132.9,70.7,131.4,70.7z M131.4,65.8c-1.2,0-2.2,1-2.2,2.2c0,1.2,1,2.2,2.2,2.2c1.2,0,2.2-1,2.2-2.2
	C133.6,66.8,132.6,65.8,131.4,65.8z"/>
<path fill="#444444" d="M145.2,72h-7.6c-0.1,0-0.2-0.1-0.2-0.2v-4.2c0-0.1,0.1-0.2,0.2-0.2h7.6c0.1,0,0.2,0.1,0.2,0.2v4.2
	C145.5,71.9,145.4,72,145.2,72z M137.9,71.5h7.1v-3.7h-7.1V71.5z"/>
<path fill="#444444" d="M143.5,69.7C143.5,69.7,143.5,69.7,143.5,69.7l-1.9-0.6l-2,0.5c-0.1,0-0.3,0-0.3-0.2c0-0.1,0-0.3,0.2-0.3
	l2-0.5c0,0,0.1,0,0.1,0l1.9,0.6c0.1,0,0.2,0.2,0.2,0.3C143.7,69.6,143.6,69.7,143.5,69.7z"/>
<path fill="#444444" d="M145.1,66.7h-7.5c-0.1,0-0.2-0.1-0.2-0.2V65c0-0.1,0.1-0.2,0.2-0.2h7.5c0.1,0,0.2,0.1,0.2,0.2v1.4
	C145.4,66.6,145.3,66.7,145.1,66.7z M137.9,66.2h7v-0.9h-7V66.2z"/>
<path fill="#444444" d="M139.1,66.3c-0.1,0-0.2-0.1-0.2-0.2v-0.8c0-0.1,0.1-0.2,0.2-0.2s0.2,0.1,0.2,0.2v0.8
	C139.4,66.2,139.3,66.3,139.1,66.3z"/>
<path fill="#444444" d="M140.6,66.3c-0.1,0-0.2-0.1-0.2-0.2v-0.8c0-0.1,0.1-0.2,0.2-0.2s0.2,0.1,0.2,0.2v0.8
	C140.8,66.2,140.7,66.3,140.6,66.3z"/>
<path fill="#444444" d="M142.1,66.4c-0.1,0-0.2-0.1-0.2-0.2v-0.8c0-0.1,0.1-0.2,0.2-0.2s0.2,0.1,0.2,0.2v0.8
	C142.4,66.3,142.3,66.4,142.1,66.4z"/>
<path fill="#444444" d="M143.6,66.4c-0.1,0-0.2-0.1-0.2-0.2v-0.8c0-0.1,0.1-0.2,0.2-0.2s0.2,0.1,0.2,0.2v0.8
	C143.9,66.3,143.7,66.4,143.6,66.4z"/>
<path fill="#444444" d="M156.9,60.5h-31.2c-0.1,0-0.2-0.1-0.2-0.2s0.1-0.2,0.2-0.2h31.2c0.1,0,0.2,0.1,0.2,0.2S157,60.5,156.9,60.5z
	"/>
<path fill="#444444" d="M131.1,62h-5.4c-0.1,0-0.2-0.1-0.2-0.2s0.1-0.2,0.2-0.2h5.4c0.1,0,0.2,0.1,0.2,0.2S131.3,62,131.1,62z"/>
<path fill="#444444" d="M156.9,62h-5.1c-0.1,0-0.2-0.1-0.2-0.2s0.1-0.2,0.2-0.2h5.1c0.1,0,0.2,0.1,0.2,0.2S157,62,156.9,62z"/>
<path fill="#444444" d="M130.2,76.7h-2.4c-0.1,0-0.2-0.1-0.2-0.2v-1.3c0-0.1,0.1-0.2,0.2-0.2h2.4c0.1,0,0.2,0.1,0.2,0.2v1.3
	C130.4,76.6,130.3,76.7,130.2,76.7z M128,76.2h1.9v-0.8H128V76.2z"/>
<path fill="#444444" d="M154.9,76.7h-2.4c-0.1,0-0.2-0.1-0.2-0.2v-1.3c0-0.1,0.1-0.2,0.2-0.2h2.4c0.1,0,0.2,0.1,0.2,0.2v1.3
	C155.1,76.6,155,76.7,154.9,76.7z M152.8,76.2h1.9v-0.8h-1.9V76.2z"/>
<path fill="#444444" d="M128,70.6c-0.1,0-0.1,0-0.2-0.1c-0.1-0.1-0.1-0.3,0-0.4l5.7-5.7c0.1-0.1,0.3-0.1,0.4,0s0.1,0.3,0,0.4
	l-5.7,5.7C128.1,70.5,128,70.6,128,70.6z"/>
<path fill="#444444" d="M127.2,68.7c-0.1,0-0.1,0-0.2-0.1c-0.1-0.1-0.1-0.3,0-0.4l4.7-4.6c0.1-0.1,0.3-0.1,0.4,0
	c0.1,0.1,0.1,0.3,0,0.4l-4.7,4.6C127.4,68.7,127.3,68.7,127.2,68.7z"/>
<path fill="#444444" d="M129.3,71.6c-0.1,0-0.1,0-0.2-0.1c-0.1-0.1-0.1-0.3,0-0.4l5.5-5.4c0.1-0.1,0.3-0.1,0.4,0
	c0.1,0.1,0.1,0.3,0,0.4l-5.5,5.4C129.4,71.5,129.4,71.6,129.3,71.6z"/>
<path fill="#444444" d="M131,72.3c-0.1,0-0.1,0-0.2-0.1c-0.1-0.1-0.1-0.3,0-0.4l4.5-4.3c0.1-0.1,0.3-0.1,0.4,0s0.1,0.3,0,0.4
	l-4.5,4.3C131.1,72.3,131.1,72.3,131,72.3z"/>
<path fill="#444444" d="M151.6,72.5c-2.5,0-4.5-2-4.5-4.5c0-2.5,2-4.5,4.5-4.5c2.5,0,4.4,2,4.4,4.5C156,70.5,154,72.5,151.6,72.5z
	 M151.6,64.1c-2.2,0-4,1.8-4,4c0,2.2,1.8,4,4,4c2.2,0,3.9-1.8,3.9-4C155.5,65.9,153.8,64.1,151.6,64.1z"/>
<path fill="#444444" d="M151.6,70.7c-1.5,0-2.7-1.2-2.7-2.7c0-1.5,1.2-2.7,2.7-2.7s2.7,1.2,2.7,2.7C154.2,69.5,153,70.7,151.6,70.7z
	 M151.6,65.8c-1.2,0-2.2,1-2.2,2.2c0,1.2,1,2.2,2.2,2.2s2.2-1,2.2-2.2C153.7,66.8,152.8,65.8,151.6,65.8z"/>
<path fill="#444444" d="M148.1,70.6c-0.1,0-0.1,0-0.2-0.1c-0.1-0.1-0.1-0.3,0-0.4l5.7-5.7c0.1-0.1,0.3-0.1,0.4,0s0.1,0.3,0,0.4
	l-5.7,5.7C148.2,70.5,148.2,70.6,148.1,70.6z"/>
<path fill="#444444" d="M147.4,68.7c-0.1,0-0.1,0-0.2-0.1c-0.1-0.1-0.1-0.3,0-0.4l4.7-4.6c0.1-0.1,0.3-0.1,0.4,0
	c0.1,0.1,0.1,0.3,0,0.4l-4.7,4.6C147.5,68.7,147.4,68.7,147.4,68.7z"/>
<path fill="#444444" d="M149.5,71.6c-0.1,0-0.1,0-0.2-0.1c-0.1-0.1-0.1-0.3,0-0.4l5.5-5.4c0.1-0.1,0.3-0.1,0.4,0
	c0.1,0.1,0.1,0.3,0,0.4l-5.5,5.4C149.6,71.5,149.5,71.6,149.5,71.6z"/>
<path fill="#444444" d="M151.2,72.3c-0.1,0-0.1,0-0.2-0.1c-0.1-0.1-0.1-0.3,0-0.4l4.5-4.3c0.1-0.1,0.3-0.1,0.4,0s0.1,0.3,0,0.4
	l-4.5,4.3C151.3,72.3,151.2,72.3,151.2,72.3z"/>
<path fill="#444444" d="M155.3,37.3H131c-0.1,0-0.2-0.1-0.2-0.2s0.1-0.2,0.2-0.2h24v-4.1c0-2.8-1-5.2-3-7c-2.4-2.2-5.8-3.3-9.4-3
	c-6,0.5-9.3,0.7-11.2,8.7c0,0.1-0.2,0.2-0.3,0.2c-0.1,0-0.2-0.2-0.2-0.3c1.9-7.9,5.1-8.5,11.7-9.1c3.8-0.3,7.3,0.8,9.8,3.1
	c2.1,1.9,3.2,4.5,3.2,7.4V37C155.6,37.2,155.4,37.3,155.3,37.3z"/>
<path fill="#444444" d="M130.9,37.2c-0.1,0-0.1,0-0.2-0.1c-0.1-0.1-2.3-1.9-2.5-3.7c-0.1-0.6,0.1-1.2,0.4-1.6
	c0.3-0.3,0.8-0.8,1.8-0.8l11.2,0c0.1,0,0.3,0,0.4,0c1.6,0,5.3-0.1,6.9,2.6l1.6,3.2c0,0.1,0,0.2,0,0.2s-0.1,0.1-0.2,0.1L130.9,37.2
	L130.9,37.2z M130.5,31.5c-0.6,0-1.1,0.2-1.5,0.6c-0.3,0.3-0.4,0.8-0.3,1.3c0.2,1.5,1.9,3,2.3,3.4l19-0.1l-1.4-2.8
	c-1.5-2.5-5-2.4-6.5-2.3c-0.2,0-0.3,0-0.5,0L130.5,31.5z"/>
<path fill="#444444" d="M141.7,22.6c-0.1,0-0.2-0.1-0.2-0.2c0-0.9,0.8-1.7,1.7-1.7c1,0,1.7,0.6,1.7,1.5c0,0.1-0.1,0.2-0.2,0.2
	s-0.2-0.1-0.2-0.2c0-0.7-0.6-1-1.2-1c-0.7,0-1.2,0.5-1.2,1.2C141.9,22.5,141.8,22.6,141.7,22.6z"/>
<path fill="#444444" d="M134.1,29.9C134.1,29.9,134,29.9,134.1,29.9c-0.1,0-0.3-0.1-0.2-0.3c0.2-3.8,3.9-6.4,5-7.1c0,0,0,0,0,0.1
	c0,0,0.1-0.1,0.1-0.1c0.1-0.1,0.3,0,0.3,0.1c0.1,0.1,0.1,0.2-0.1,0.4c-1.1,0.7-4.6,3.1-4.8,6.6C134.3,29.8,134.2,29.9,134.1,29.9z"
	/>
<path fill="#444444" d="M149.3,30.2C149.3,30.2,149.3,30.2,149.3,30.2c-0.1,0-0.3-0.1-0.2-0.3c0.1-4.7-3.2-7.1-3.2-7.2
	c-0.1-0.1-0.1-0.2-0.1-0.3c0.1-0.1,0.2-0.1,0.3-0.1c0.1,0.1,3.5,2.6,3.4,7.6C149.5,30.1,149.4,30.2,149.3,30.2z"/>
<path fill="#444444" d="M153.3,30.3c-0.1,0-0.2-0.1-0.2-0.2c-0.3-3-3.1-5.9-3.1-6c-0.1-0.1-0.1-0.3,0-0.4c0.1-0.1,0.3-0.1,0.4,0
	c0.1,0.1,2.9,3.1,3.3,6.3C153.5,30.1,153.4,30.2,153.3,30.3C153.3,30.3,153.3,30.3,153.3,30.3z"/>
<path fill="#444444" d="M141.3,30c-0.1,0-0.2-0.1-0.2-0.2c-0.6-4.9,1.2-7.4,1.3-7.5c0.1-0.1,0.2-0.1,0.3-0.1
	c0.1,0.1,0.1,0.2,0.1,0.3c0,0-1.7,2.5-1.2,7.2C141.6,29.8,141.5,30,141.3,30C141.3,30,141.3,30,141.3,30z"/>
<path fill="#444444" d="M131.7,35.3c-0.1,0-0.1,0-0.2-0.1c-0.7-0.9-1.1-1.5-0.9-1.9c0.2-0.3,0.6-0.5,1.4-0.4l5.5,0
	c0.1,0,0.2,0.1,0.2,0.3c0,0.1-0.1,0.2-0.2,0.2c0,0,0,0,0,0l-5.5,0c-0.8,0-1,0.1-1,0.1c-0.1,0.2,0.2,0.6,0.8,1.4
	c0.1,0.1,0.1,0.3,0,0.4C131.9,35.2,131.8,35.3,131.7,35.3z"/>
<path fill="#444444" d="M145,117.6h-9.7c-0.1,0-0.2-0.1-0.2-0.2v-15.1c0-0.1,0.1-0.2,0.2-0.2h9.7c0.1,0,0.2,0.1,0.2,0.2v15.1
	C145.3,117.5,145.2,117.6,145,117.6z M135.6,117.1h9.2v-14.6h-9.2V117.1z"/>
<path fill="#444444" d="M136.5,102.3C136.5,102.3,136.4,102.3,136.5,102.3c-0.2,0-0.3-0.2-0.2-0.3l0.4-1.5c0-0.1,0.1-0.2,0.2-0.2
	h6.7c0.1,0,0.2,0.1,0.2,0.2l0.6,1.4c0.1,0.1,0,0.3-0.1,0.3c-0.1,0-0.3,0-0.3-0.1l-0.5-1.3h-6.3l-0.4,1.3
	C136.7,102.3,136.6,102.3,136.5,102.3z"/>
<path fill="#444444" d="M140.3,100.8c-0.1,0-0.2-0.1-0.2-0.2v-1.2c0-0.1,0.1-0.2,0.2-0.2s0.2,0.1,0.2,0.2v1.2
	C140.6,100.7,140.4,100.8,140.3,100.8z"/>
<path fill="#444444" d="M141.2,99.4h-1.8c-0.1,0-0.1,0-0.2-0.1c0-0.1-0.1-0.1-0.1-0.2l0.2-2.3c0-0.1,0.1-0.2,0.2-0.2h1.4
	c0.1,0,0.2,0.1,0.2,0.2l0.2,2.3c0,0.1,0,0.1-0.1,0.2C141.3,99.4,141.3,99.4,141.2,99.4z M139.7,98.9h1.3l-0.2-1.8h-0.9L139.7,98.9z"
	/>
<path fill="#444444" d="M148.5,102.7c-1.6,0-3-1.3-3-2.9c0-0.2,0-0.5,0.1-0.8l-2.9-1c-0.1,0-0.2-0.1-0.2-0.2c0-0.1,0.1-0.2,0.2-0.2
	l3.2-0.8c0-1.3,1.1-2.4,2.5-2.4c1,0,1.9,0.6,2.3,1.5c0,0,0,0,0,0c1.2,0,2.2,1,2.2,2.2c0,1-0.7,1.9-1.6,2.1
	C151.3,101.6,150,102.7,148.5,102.7z M143.7,97.8l2.4,0.8c0.1,0,0.1,0.1,0.1,0.1s0,0.1,0,0.2c-0.1,0.3-0.2,0.6-0.2,0.8
	c0,1.4,1.1,2.4,2.5,2.4c1.3,0,2.4-1,2.4-2.3c0-0.1,0.1-0.2,0.2-0.2c0.8-0.2,1.4-0.9,1.4-1.7c0-0.9-0.8-1.7-1.7-1.7c0,0-0.1,0-0.1,0
	c-0.1,0-0.3-0.1-0.3-0.2c-0.3-0.8-1-1.4-1.9-1.4c-1.1,0-2,0.9-2,2c0,0,0,0.1,0,0.1c0,0.1-0.1,0.2-0.2,0.3L143.7,97.8z"/>
<path fill="#444444" d="M137.3,113.5c-0.1,0-0.2-0.1-0.2-0.2v-10.5c0-0.1,0.1-0.2,0.2-0.2s0.2,0.1,0.2,0.2v10.5
	C137.5,113.4,137.4,113.5,137.3,113.5z"/>
<path fill="#444444" d="M137.3,117.6c-0.1,0-0.2-0.1-0.2-0.2v-2.1c0-0.1,0.1-0.2,0.2-0.2s0.2,0.1,0.2,0.2v2.1
	C137.5,117.5,137.4,117.6,137.3,117.6z"/>
<path fill="#444444" d="M194.5,40.7c-6.5,0-11.8-5.3-11.8-11.8c0-6.5,5.3-11.8,11.8-11.8s11.8,5.3,11.8,11.8
	C206.3,35.4,201,40.7,194.5,40.7z M194.5,17.6c-6.2,0-11.3,5.1-11.3,11.3c0,6.2,5.1,11.3,11.3,11.3s11.3-5.1,11.3-11.3
	C205.8,22.7,200.7,17.6,194.5,17.6z"/>
<path fill="#444444" d="M194.6,37.9c-5.1,0-9.2-4.1-9.2-9.2c0-5.1,4.1-9.2,9.2-9.2c5.1,0,9.2,4.1,9.2,9.2
	C203.8,33.8,199.7,37.9,194.6,37.9z M194.6,19.9c-4.8,0-8.7,3.9-8.7,8.7c0,4.8,3.9,8.7,8.7,8.7c4.8,0,8.7-3.9,8.7-8.7
	C203.3,23.8,199.4,19.9,194.6,19.9z"/>
<path fill="#444444" d="M194.6,35.8c-3.8,0-6.9-3.1-6.9-6.9c0-3.8,3.1-6.9,6.9-6.9c3.8,0,6.9,3.1,6.9,6.9
	C201.4,32.7,198.3,35.8,194.6,35.8z M194.6,22.6c-3.5,0-6.4,2.8-6.4,6.4s2.9,6.4,6.4,6.4c3.5,0,6.4-2.9,6.4-6.4
	S198.1,22.6,194.6,22.6z"/>
<path fill="#444444" d="M191.8,33.4c-0.1,0-0.1,0-0.1,0c-0.1-0.1-0.1-0.2-0.1-0.3l0.7-3.1l-2.5-2.2c-0.1-0.1-0.1-0.2-0.1-0.3
	c0-0.1,0.1-0.2,0.2-0.2h0l3.3,0c0.2-0.6,1-2.7,1.1-3c0-0.1,0.1-0.2,0.2-0.2l0,0c0.1,0,0.2,0.1,0.2,0.2l1.1,3h3.1
	c0.1,0,0.2,0.1,0.2,0.2c0,0.1,0,0.2-0.1,0.3l-2.4,2.1l0.9,3.1c0,0.1,0,0.2-0.1,0.3c-0.1,0.1-0.2,0.1-0.3,0l-2.7-1.7l-2.6,1.7
	C191.9,33.4,191.8,33.4,191.8,33.4z M190.6,27.9l2.1,1.9c0.1,0.1,0.1,0.2,0.1,0.2l-0.6,2.6l2.2-1.5c0.1-0.1,0.2-0.1,0.3,0l2.3,1.5
	l-0.8-2.6c0-0.1,0-0.2,0.1-0.3l2-1.8h-2.6c-0.1,0-0.2-0.1-0.2-0.2l-0.9-2.5c-0.4,1.1-0.9,2.4-0.9,2.5c0,0.1-0.1,0.2-0.2,0.2h0
	L190.6,27.9z"/>
<path fill="#444444" d="M196.3,82.7c-0.8,0-1.7-0.3-2.7-1.1l-5.1-5.1c0,0-0.1-0.1-0.1-0.2l-0.2-6.1c0,0,0,0,0,0v-5.1
	c0-0.1,0.8-6.7,8.3-6.7c0,0,6.1-0.6,7.5,6.5l0,11.4c0,0.1,0,0.1-0.1,0.2l-5,5.2C199,81.7,197.9,82.7,196.3,82.7z M188.9,76.2l5,5
	c2.4,2.1,4.6,0.2,4.7,0.1l4.9-5.1V64.9c-1.3-6.6-6.8-6.1-7-6.1c-7.1,0-7.8,6.2-7.8,6.3l0,5.1L188.9,76.2z"/>
<path fill="#444444" d="M190,77.9c-0.1,0-0.2-0.1-0.2-0.2V74c0-0.1,0-0.2,0.1-0.2c0.1,0,0.2-0.1,0.2,0l6,2.9l6.2-2.9
	c0.1,0,0.2,0,0.2,0c0.1,0,0.1,0.1,0.1,0.2l-0.1,3.4c0,0.1-0.1,0.2-0.2,0.2c0,0,0,0,0,0c-0.1,0-0.2-0.1-0.2-0.3l0-3l-5.9,2.7
	c-0.1,0-0.1,0-0.2,0l-5.8-2.7v3.2C190.2,77.8,190.1,77.9,190,77.9z"/>
<path fill="#444444" d="M192.2,72.4c-0.4,0-0.8-0.1-1.2-0.3c-0.5-0.3-0.8-0.9-0.7-1.7c0-0.1,0-0.1,0.1-0.2s0.1-0.1,0.2,0l4.1,1.2
	c0.1,0,0.2,0.1,0.2,0.2s0,0.2-0.1,0.2C194.6,71.9,193.4,72.4,192.2,72.4z M190.8,70.8c0,0.5,0.2,0.8,0.5,1c0.6,0.4,1.7,0.2,2.5-0.1
	L190.8,70.8z"/>
<path fill="#444444" d="M200.2,72.4c-1.2,0-2.4-0.6-2.5-0.6c-0.1,0-0.2-0.1-0.1-0.2s0.1-0.2,0.2-0.2l4.1-1.2c0.1,0,0.2,0,0.2,0
	c0.1,0,0.1,0.1,0.1,0.2c0,0.8-0.2,1.4-0.7,1.7C201,72.4,200.6,72.4,200.2,72.4z M198.6,71.6c0.8,0.3,1.9,0.5,2.5,0.1
	c0.3-0.2,0.5-0.5,0.5-1L198.6,71.6z"/>
<path fill="#444444" d="M188.6,74.6c-0.1,0-0.2,0-0.2-0.1c-1.4-2.5-1.8-4-1.3-4.8c0.4-0.5,1.1-0.4,1.1-0.4c0.1,0,0.2,0.2,0.2,0.3
	c0,0.1-0.2,0.2-0.3,0.2l0,0c0,0-0.4-0.1-0.6,0.2c-0.2,0.3-0.4,1.2,1.3,4.2c0.1,0.1,0,0.3-0.1,0.3C188.7,74.6,188.6,74.6,188.6,74.6z
	"/>
<path fill="#444444" d="M203.8,74.6c0,0-0.1,0-0.1,0c-0.1-0.1-0.2-0.2-0.1-0.3c1.7-3,1.5-3.9,1.3-4.2c-0.2-0.3-0.6-0.2-0.6-0.2
	c-0.1,0-0.3-0.1-0.3-0.2c0-0.1,0.1-0.3,0.2-0.3c0,0,0.7-0.1,1.1,0.4c0.5,0.8,0.1,2.3-1.3,4.7C204,74.6,203.9,74.6,203.8,74.6z"/>
<path fill="#444444" d="M196.7,78.9h-1c-0.1,0-0.2-0.1-0.2-0.2s0.1-0.2,0.2-0.2h1c0.1,0,0.2,0.1,0.2,0.2S196.8,78.9,196.7,78.9z"/>
<path fill="#444444" d="M190,61.4c-0.1,0-0.2-0.1-0.2-0.2l-0.5-4.2c0-0.1,0.1-0.2,0.2-0.3c0.1,0,0.2,0,0.3,0.1l2.1,3
	c0.1,0.1,0.1,0.3-0.1,0.3c-0.1,0.1-0.3,0.1-0.3-0.1l-1.6-2.2l0.4,3.2C190.3,61.3,190.2,61.4,190,61.4C190,61.4,190,61.4,190,61.4z"
	/>
<path fill="#444444" d="M202.1,61C202.1,61,202.1,61,202.1,61c-0.2,0-0.3-0.1-0.2-0.3l0.4-3.2l-1.6,2.2c-0.1,0.1-0.2,0.1-0.3,0.1
	c-0.1-0.1-0.1-0.2-0.1-0.3l2.1-3c0.1-0.1,0.2-0.1,0.3-0.1c0.1,0,0.2,0.1,0.2,0.3l-0.5,4.2C202.4,60.9,202.2,61,202.1,61z"/>
<path fill="#444444" d="M195.2,70.8c-0.1,0-0.2-0.1-0.2-0.2c-0.1-0.6-1-0.7-1-0.7c-0.1,0-0.2-0.1-0.2-0.3c0-0.1,0.1-0.2,0.3-0.2
	c0.1,0,1.3,0.1,1.5,1.1C195.5,70.6,195.4,70.7,195.2,70.8C195.3,70.8,195.2,70.8,195.2,70.8z"/>
<path fill="#444444" d="M197.1,70.8C197.1,70.8,197,70.8,197.1,70.8c-0.2,0-0.3-0.2-0.2-0.3c0.2-1,1.4-1.1,1.5-1.1
	c0.2,0,0.3,0.1,0.3,0.2c0,0.1-0.1,0.3-0.2,0.3c0,0-0.9,0.1-1,0.7C197.3,70.7,197.2,70.8,197.1,70.8z"/>
<path fill="#444444" d="M210.3,142.8C210.2,142.8,210.2,142.8,210.3,142.8c-0.9-0.2-1.5-1.1-1.4-2.1c0-0.2,0.1-0.5,0.2-0.7
	c0.1-0.2,0.1-0.4,0.2-0.6l0-0.1c0.1-0.4,0.1-0.9,0-1.3c-0.2-0.7-0.6-1.1-1.9-1c-0.1,0-0.2,0-0.2-0.1c-0.1-0.1-0.1-0.1,0-0.2
	c0.3-0.9,1.3-1.5,2.3-1.3c0.2,0.1,0.5,0.1,0.7,0.2c0.3,0.1,0.5,0.2,0.7,0.2c0.3,0.1,0.6,0.1,0.9,0c0.5-0.1,0.8-0.3,1-0.7
	c0.2-0.4,0.2-0.8,0-1.3c0-0.1,0-0.2,0-0.2c0-0.1,0.1-0.1,0.2-0.1h0.2c0.1,0,0.1,0,0.1,0c1.5,1,1.2,2.4,0.8,3.3
	c-0.2,0.4-0.2,0.8-0.2,1.2c0,0.4,0.2,0.8,0.5,1c0.3,0.3,0.9,0.4,1.5,0.3c0.1,0,0.2,0,0.2,0.1c0.1,0.1,0.1,0.2,0,0.2
	c-0.3,1-1.3,1.5-2.3,1.3c-0.3-0.1-0.5-0.1-0.8-0.2c-0.1,0-0.3-0.1-0.4-0.1c-0.7-0.2-1.4-0.1-1.8,0.2c-0.4,0.3-0.6,0.9-0.5,1.7
	c0,0.1,0,0.2-0.1,0.2C210.4,142.8,210.3,142.8,210.3,142.8z M207.8,136.5c0.8,0,1.7,0.2,2,1.4c0.1,0.5,0,1,0,1.5l0,0.1
	c0,0.2-0.1,0.5-0.2,0.7c-0.1,0.2-0.1,0.4-0.2,0.6c-0.1,0.6,0.2,1.1,0.6,1.4c0-0.7,0.2-1.3,0.7-1.7c0.5-0.5,1.3-0.6,2.2-0.3
	c0.1,0,0.3,0.1,0.4,0.1c0.3,0.1,0.5,0.2,0.7,0.2c0.7,0.1,1.2-0.1,1.6-0.6c-0.6,0-1.1-0.1-1.5-0.4c-0.4-0.3-0.6-0.8-0.7-1.4
	c0-0.4,0-0.9,0.2-1.4c0.4-1.1,0.3-1.9-0.3-2.5c0.1,0.5,0,0.9-0.2,1.2c-0.3,0.4-0.7,0.8-1.3,0.9c-0.3,0.1-0.7,0.1-1.1,0
	c-0.3-0.1-0.5-0.1-0.8-0.2c-0.2-0.1-0.5-0.1-0.7-0.2C208.7,135.8,208.1,136.1,207.8,136.5C207.8,136.5,207.8,136.5,207.8,136.5z
	 M211.7,139.2c-0.3,0-0.5-0.1-0.7-0.3c-0.2-0.2-0.3-0.4-0.3-0.7c0-0.3,0.1-0.5,0.3-0.7c0.2-0.2,0.5-0.3,0.7-0.3c0.5,0,1,0.5,0.9,1
	C212.7,138.8,212.2,139.2,211.7,139.2C211.7,139.2,211.7,139.2,211.7,139.2z M211.7,137.8c-0.1,0-0.2,0-0.3,0.1
	c-0.1,0.1-0.2,0.2-0.2,0.4c0,0.1,0,0.3,0.1,0.4c0.1,0.1,0.2,0.1,0.4,0.1c0.3,0,0.5-0.2,0.5-0.5c0,0,0,0,0,0
	C212.2,138,212,137.8,211.7,137.8C211.7,137.8,211.7,137.8,211.7,137.8z"/>
<path fill="#444444" d="M181.5,152.2c-0.1,0-0.2-0.1-0.2-0.2c0-0.1,0.1-0.3,0.2-0.3c9.6-1.5,18.9-3,28.3-5.2l1-0.2
	c2.5-0.6,5-1.2,7.3-2.1c0.6-0.2,1-0.5,1.4-0.7c0.3-0.2,0.4-0.4,0.4-0.6c-7.4,2.1-14.9,3.5-22.1,4.8l-0.5,0.1c-5.3,1-10.9,2-16.3,2.8
	c-0.1,0-0.3-0.1-0.3-0.2s0.1-0.3,0.2-0.3c5.5-0.8,11-1.8,16.3-2.8l0.5-0.1c7.3-1.4,14.9-2.8,22.4-4.9c0.1,0,0.1,0,0.2,0
	c0.1,0,0.1,0.1,0.1,0.2c0.1,0.6-0.1,1-0.7,1.4c-0.4,0.3-0.9,0.5-1.5,0.8c-2.4,1-4.9,1.6-7.4,2.2l-1,0.2
	C200.4,149.2,191.1,150.7,181.5,152.2C181.5,152.2,181.5,152.2,181.5,152.2z"/>
<path fill="#444444" d="M181.4,153.3c-0.1,0-0.2-0.1-0.2-0.2l-0.7-3.8c0-0.1,0.1-0.3,0.2-0.3c0.1,0,0.3,0.1,0.3,0.2l0.7,3.8
	C181.7,153.1,181.6,153.2,181.4,153.3C181.4,153.3,181.4,153.3,181.4,153.3z"/>
<path fill="#444444" d="M168.8,153.9c0,0-0.1,0-0.1,0c-0.5-0.3-0.7-0.7-0.8-1.1c-0.1-0.7,0.4-1.2,0.4-1.2c0,0,0.1-0.1,0.2-0.1
	l12-1.4c0.1,0,0.3,0.1,0.3,0.2c0,0.1-0.1,0.3-0.2,0.3l-11.9,1.3c-0.1,0.1-0.3,0.4-0.2,0.7c0,0.3,0.2,0.5,0.5,0.7l12.1-1.6
	c0.1,0,0.3,0.1,0.3,0.2c0,0.1-0.1,0.3-0.2,0.3L168.8,153.9C168.8,153.9,168.8,153.9,168.8,153.9z"/>
<path fill="#444444" d="M170.2,153.7c-0.1,0-0.1,0-0.2-0.1c-0.8-0.6-0.7-1.5-0.6-1.9c0-0.1,0.1-0.3,0.3-0.3c0.1,0,0.3,0.1,0.3,0.2
	c0,0.1,0,0.1-0.1,0.2c-0.1,0.2-0.2,0.9,0.5,1.4c0.1,0.1,0.1,0.2,0,0.4C170.4,153.6,170.3,153.7,170.2,153.7z"/>
<path fill="#444444" d="M178.9,151l0.3,0.4l-0.2,0.4l-0.2-0.4L178.9,151 M179,150.5C178.9,150.5,178.9,150.5,179,150.5
	c-0.3,0-0.4,0.2-0.5,0.3l-0.2,0.4c-0.1,0.1,0,0.3,0.1,0.4l0.2,0.4c0.1,0.1,0.3,0.2,0.4,0.2c0,0,0,0,0,0c0.2,0,0.3-0.1,0.4-0.3
	l0.2-0.4c0.1-0.2,0.1-0.4-0.1-0.5l-0.3-0.4C179.3,150.6,179.1,150.5,179,150.5L179,150.5z"/>
<path fill="#444444" d="M176.6,151.3l0.3,0.4l-0.2,0.4l-0.2-0.4L176.6,151.3 M176.6,150.8C176.6,150.8,176.5,150.9,176.6,150.8
	c-0.3,0-0.4,0.2-0.5,0.3l-0.2,0.4c-0.1,0.1,0,0.3,0.1,0.4l0.2,0.4c0.1,0.1,0.3,0.2,0.4,0.2c0,0,0,0,0,0c0.2,0,0.3-0.1,0.4-0.3
	l0.2-0.4c0.1-0.2,0.1-0.4-0.1-0.5L177,151C176.9,150.9,176.7,150.8,176.6,150.8L176.6,150.8z"/>
<path fill="#444444" d="M174.2,151.6l0.3,0.4l-0.2,0.4l-0.2-0.4L174.2,151.6 M174.2,151.1C174.2,151.1,174.2,151.1,174.2,151.1
	c-0.3,0-0.4,0.2-0.5,0.3l-0.2,0.4c-0.1,0.2,0,0.3,0.1,0.5l0.2,0.4c0.1,0.1,0.3,0.2,0.4,0.2c0,0,0,0,0,0c0.2,0,0.3-0.1,0.4-0.3
	l0.2-0.4c0.1-0.2,0.1-0.4-0.1-0.5l-0.3-0.4C174.5,151.2,174.4,151.1,174.2,151.1L174.2,151.1z"/>
<path fill="#444444" d="M171.9,151.9l0.3,0.4l-0.2,0.4l-0.2-0.4L171.9,151.9 M171.9,151.4C171.9,151.4,171.8,151.4,171.9,151.4
	c-0.3,0-0.4,0.2-0.5,0.3l-0.2,0.4c-0.1,0.1,0,0.3,0.1,0.4l0.2,0.4c0.1,0.1,0.3,0.2,0.4,0.2c0,0,0,0,0,0c0.2,0,0.3-0.1,0.4-0.3
	l0.2-0.4c0.1-0.2,0.1-0.4-0.1-0.5l-0.3-0.4C172.2,151.5,172,151.4,171.9,151.4L171.9,151.4z"/>
<path fill="#444444" d="M189.5,121.6C189.4,121.6,189.4,121.6,189.5,121.6c-0.2-0.1-0.2-0.1-0.2-0.2l-3.1-19.6
	c0-0.1,0.1-1.4,2.2-1.6c0.1,0,3.9-0.5,5.2-0.6c3.1-0.2,8.3-0.7,8.9-1.4c0.1-0.1,0.2-0.1,0.3-0.1c0.1,0,0.2,0.1,0.2,0.2l4.4,19.6
	c0,0.1,0,0.1,0,0.2c0,0.1-0.1,0.1-0.2,0.1c-0.1,0-14.1,0.9-17.4,3.4C189.6,121.6,189.5,121.6,189.5,121.6z M202.4,98.8
	c-1.7,0.9-7.6,1.3-8.9,1.3c-1.3,0-5.1,0.6-5.2,0.6c-1.7,0.2-1.8,1.1-1.8,1.1l3,19.1c3.6-2.2,15-3.1,17-3.2L202.4,98.8z"/>
<path fill="#444444" d="M190.2,122c-0.7,0-0.9-0.2-0.9-0.3c-0.1-0.2-0.1-0.3,0-0.4c0.1-0.1,0.2-0.1,0.3-0.1c0.1,0.1,0.1,0.2,0.1,0.2
	c0.2,0.1,1.2,0.3,5.9-1c0.4-0.1,8.6-1.4,10.5-1.6c0-0.4,0-1,0.5-1.1c0.1,0,0.3,0,0.3,0.2c0,0.1,0,0.3-0.2,0.3
	c-0.2,0-0.1,0.6-0.1,0.8c0,0.1,0,0.2,0,0.2c0,0.1-0.1,0.1-0.2,0.1c0,0,0,0,0,0c-1,0-7.4,1-10.7,1.6C192.6,121.8,191,122,190.2,122z"
	/>
<path fill="#444444" d="M190.8,119.7c0,0-0.1,0-0.1,0c-0.1,0-0.1-0.1-0.1-0.2c-2-10.5-2-10.6-2-10.7c0,0,0,0,0,0
	c0-0.2,0.1-0.9,8.2-1.4c5.1-0.2,6-0.7,6-0.7c0.1,0,0.2,0,0.2,0c0.1,0,0.1,0.1,0.1,0.2l2.7,10c0,0.1,0,0.1,0,0.2
	c0,0.1-0.1,0.1-0.2,0.1c-12.9,1.5-14.6,2.4-14.6,2.4C190.9,119.7,190.9,119.7,190.8,119.7z M189.1,109c0.1,0.8,1.2,6.3,1.9,10.2
	c0.9-0.3,4-1.1,14.2-2.3l-2.5-9.4c-0.6,0.2-2.1,0.5-6,0.6C193.3,108.2,189.6,108.6,189.1,109z"/>
<path fill="#444444" d="M198.9,110.9c2.1,0,3.8,1.1,3.8,2.5c0,1.4-1.7,2.5-3.8,2.5c-0.7,0-1.4-0.1-2-0.4l-0.1,0l0,0
	c-0.2,0.2-0.5,0.3-0.7,0.4c0.2-0.2,0.3-0.4,0.4-0.5l0-0.1l-0.1,0c-0.8-0.5-1.3-1.2-1.3-1.9C195.1,112,196.8,110.9,198.9,110.9
	 M198.9,110.4c-2.4,0-4.3,1.3-4.3,3c0,0.8,0.4,1.5,1.2,2.1c0,0-0.1,0.1-0.1,0.1c-0.2,0.2-0.2,0.4-0.1,0.6c0.1,0.1,0.3,0.2,0.4,0.2
	c0.1,0,0.1,0,0.2,0c0.3-0.1,0.5-0.2,0.7-0.3c0.6,0.2,1.3,0.3,2,0.3c2.4,0,4.3-1.3,4.3-3C203.2,111.7,201.3,110.4,198.9,110.4
	L198.9,110.4z"/>
<path fill="#444444" d="M191.9,116.9c-0.1,0-0.2,0-0.3-0.1c-0.2-0.1-0.4-0.3-0.4-0.6c-0.1-0.3,0-0.6,0.2-0.9
	c0.2-0.2,0.4-0.4,0.7-0.5c0.2-0.1,0.4,0,0.6,0.1c0.2,0.1,0.4,0.2,0.4,0.6c0,0.3-0.1,0.6-0.3,0.9c-0.2,0.2-0.4,0.4-0.6,0.4
	C192,116.9,192,116.9,191.9,116.9z M192.3,115.3c0,0-0.1,0-0.1,0c-0.2,0-0.3,0.1-0.4,0.3c-0.1,0.2-0.2,0.3-0.2,0.5
	c0,0.1,0.1,0.2,0.1,0.2c0.1,0,0.1,0,0.2,0c0.1,0,0.3-0.1,0.4-0.3c0.1-0.2,0.2-0.3,0.2-0.5c0-0.1-0.1-0.2-0.1-0.2c0,0,0,0,0,0
	C192.4,115.4,192.3,115.3,192.3,115.3z M191.8,114.5c-0.1,0-0.1,0-0.2-0.1c-0.1-0.1-0.1-0.1-0.1-0.2c0.1-1.4,0.3-2.9,0.5-4.4
	c0-0.1,0.1-0.2,0.2-0.2c0.6,0,1.2,0,1.8,0c0.1,0,0.2,0,0.2,0.1c0,0.1,0,0.2,0,0.2c-0.5,1-0.7,1.7-0.8,2.1c-0.2,0.7-0.4,1.4-0.5,2.1
	c0,0.1-0.1,0.2-0.2,0.2C192.4,114.4,192.1,114.5,191.8,114.5C191.8,114.5,191.8,114.5,191.8,114.5z M192.5,110.2
	c-0.2,1.3-0.4,2.6-0.5,3.8c0.2,0,0.3,0,0.5,0c0.1-0.7,0.3-1.4,0.5-2c0.2-0.5,0.4-1.1,0.7-1.8C193.3,110.1,192.9,110.1,192.5,110.2z"
	/>
<path fill="#444444" d="M191.9,106.8c0,0.2-0.1,0.2-0.2,0.1c-0.1-0.1-0.3-0.2-0.4-0.3c-0.1-0.1-0.1-0.2-0.1-0.5
	c0.1-0.3,0.1-0.7,0.2-1.2c-0.2,0-0.4,0.1-0.7,0.1c-0.1,0.5-0.3,1-0.3,1.4c0,0.1-0.1,0.2-0.2,0c-0.1-0.1-0.3-0.3-0.4-0.4
	c-0.1-0.1-0.1-0.2-0.1-0.4c0-0.2,0.1-0.5,0.2-0.9c0-0.1-0.1-0.2-0.1-0.3c0-0.1,0-0.2,0.1-0.2c0,0,0.1,0,0.1,0
	c0.2-0.8,0.4-1.7,0.6-2.3c0.1-0.2,0.1-0.3,0.3-0.3c0.1,0,0.3,0.1,0.4,0.2c0.1,0.1,0.1,0.2,0.1,0.4c-0.1,0.5-0.3,1.1-0.4,1.8
	c0.2,0,0.4-0.1,0.6-0.1c0.2-0.9,0.4-1.8,0.5-2.4c0.1-0.2,0.1-0.3,0.3-0.2c0.1,0.1,0.3,0.2,0.4,0.3c0.1,0.1,0.1,0.2,0.1,0.4
	C192.7,103.2,192.2,105.3,191.9,106.8z"/>
<path fill="#444444" d="M192.9,101.8c0-0.2,0-0.2,0.1-0.2c0.4-0.2,1.2-0.2,1.8-0.1c0.1,0,0.2,0.1,0.2,0.3c0,0.2,0.1,0.3,0.1,0.5
	c0,0.2,0,0.2-0.2,0.2c-0.3,0-0.6,0-1,0c-0.1,0.3-0.2,0.8-0.3,1.2c0.2,0,0.3,0,0.5,0c0.1,0,0.2,0,0.3,0.2c0,0.2,0.1,0.3,0.1,0.5
	c0,0.2,0,0.2-0.2,0.3c-0.3,0.1-0.7,0.2-1,0.3c-0.1,0.3-0.1,0.6-0.2,0.8c0.3-0.1,0.5-0.1,0.7-0.2c0.1,0,0.2,0,0.3,0.2
	c0,0.2,0.1,0.3,0.1,0.5c0,0.2,0,0.2-0.1,0.3c-0.4,0.2-0.7,0.3-1.1,0.5c-0.2,0.1-0.3,0-0.4-0.1c-0.1-0.1-0.1-0.2-0.2-0.4
	c-0.1-0.1-0.1-0.3-0.1-0.6c0.1-0.8,0.5-2.4,0.7-3.5C192.9,102.2,192.9,102,192.9,101.8z"/>
<path fill="#444444" d="M195,106.6c0,0.2-0.1,0.2-0.2,0.2c-0.1,0-0.2,0-0.3-0.1c-0.1-0.1-0.1-0.2-0.1-0.4c0.1-0.8,0.4-2.3,0.7-3.4
	c-0.1-0.1-0.1-0.3-0.2-0.4c-0.1-0.2,0-0.3,0.1-0.4c0.6-0.3,1.8-0.2,2.1,0.3c0.2,0.2,0.3,0.5,0.3,0.8c0,0.3-0.1,0.6-0.4,0.8
	c-0.2,0.2-0.6,0.5-1,0.7c0.2,0.4,0.5,0.8,0.8,1c0.1,0.1,0.1,0.2,0,0.3c-0.1,0.1-0.2,0.1-0.3,0.2c-0.1,0.1-0.3,0.1-0.4,0
	c-0.2-0.2-0.6-0.6-0.8-1.1C195.2,105.6,195.1,106.1,195,106.6z M195.6,104.1c0.7-0.3,1.2-0.9,1.2-1.1c0-0.1-0.4-0.3-0.8-0.1
	C195.9,103.2,195.8,103.6,195.6,104.1z"/>
<path fill="#444444" d="M199.8,103.2c0,0.7-0.3,1.8-1,2.4c-0.2,0.2-0.5,0.3-0.8,0.3c-0.2,0-0.4,0-0.6-0.1c-0.1-0.1-0.3-0.2-0.3-0.4
	c-0.3-0.9,0.3-2.5,1.1-2.9c0.2-0.1,0.5-0.1,0.7-0.1c0.3,0,0.5,0.1,0.7,0.3C199.7,102.9,199.8,103,199.8,103.2z M198.1,104.1
	c-0.2,0.5-0.3,1.2-0.1,1.3c0.2,0.1,0.6-0.5,0.8-1.1c0.2-0.5,0.3-1.2,0.1-1.2C198.7,103,198.3,103.5,198.1,104.1z"/>
<path fill="#444444" d="M200,105.1c0.3,0.1,0.3,0.4,0.2,0.5c0,0.1-0.2,0.3-0.5,0.3c-0.3,0-0.4-0.2-0.4-0.5
	C199.4,105.2,199.7,105,200,105.1z M201.4,102.5c-0.3,0.9-0.7,1.8-0.9,2.4c0,0.1-0.1,0.1-0.2,0.1c-0.1,0-0.3-0.1-0.4-0.1
	c-0.1-0.1-0.1-0.1-0.1-0.3c0.2-0.6,0.6-1.6,0.8-2.3c0.1-0.1,0.1-0.2,0.3-0.2c0.1,0,0.3,0,0.4,0.1S201.4,102.3,201.4,102.5z"/>
<path fill="#444444" d="M143.5,155.6c-0.1,0-0.2,0-0.3,0c-6.1-0.1-11.1-5.3-10.9-11.4c0.1-6.1,5.1-11,11.2-11c0,0,0,0,0.1,0
	c3,0,5.8,1.2,7.9,3.3c2.1,2.2,3.3,5,3.2,8c0,3-1.3,5.8-3.4,7.9C149.2,154.4,146.4,155.6,143.5,155.6z M143.5,133.6
	c-5.8,0-10.6,4.7-10.7,10.5c-0.1,5.9,4.6,10.8,10.5,10.9c2.9,0.1,5.6-1,7.7-3c2.1-2,3.2-4.7,3.3-7.6c0-2.9-1.1-5.6-3.1-7.7
	C149.1,134.8,146.4,133.6,143.5,133.6C143.5,133.6,143.5,133.6,143.5,133.6C143.5,133.6,143.5,133.6,143.5,133.6z M143.5,148.2
	C143.5,148.2,143.5,148.2,143.5,148.2c-2.2,0-3.9-1.8-3.9-3.9c0-1,0.4-2,1.2-2.8c0.7-0.7,1.7-1.1,2.7-1.1c0,0,0,0,0,0
	c2.2,0,3.9,1.8,3.9,3.9c0,1-0.4,2-1.2,2.8C145.5,147.8,144.5,148.2,143.5,148.2z M143.5,140.9c-0.9,0-1.7,0.4-2.4,1
	c-0.7,0.6-1,1.5-1,2.4c0,1.8,1.6,3.4,3.4,3.4c0,0,0,0,0,0c0.9,0,1.7-0.3,2.4-1c0.7-0.7,1-1.5,1-2.4
	C146.9,142.5,145.4,140.9,143.5,140.9C143.5,140.9,143.5,140.9,143.5,140.9z"/>
<path fill="#444444" d="M143.5,145c-0.4,0-0.7-0.3-0.7-0.7s0.3-0.7,0.7-0.7c0.4,0,0.7,0.3,0.7,0.7S143.9,145,143.5,145z
	 M143.5,144.2c-0.1,0-0.2,0.1-0.2,0.2c0,0.1,0.1,0.2,0.2,0.2c0.1,0,0.2-0.1,0.2-0.2C143.7,144.2,143.6,144.2,143.5,144.2z"/>
<path fill="#444444" d="M152.2,146.8C152.2,146.8,152.2,146.8,152.2,146.8c-0.2,0-0.3-0.2-0.2-0.3c1.5-5.3-2.4-8.5-2.4-8.5
	c-0.1-0.1-0.1-0.2,0-0.4c0.1-0.1,0.2-0.1,0.4,0c0,0,4.1,3.3,2.6,9C152.4,146.8,152.3,146.8,152.2,146.8z"/>
<path fill="#444444" d="M150.9,149.7c-0.1,0-0.1,0-0.2-0.1c-0.1-0.1-0.1-0.3,0-0.4c0.4-0.4,0.6-0.8,0.8-1.5c0-0.1,0.2-0.2,0.3-0.2
	c0.1,0,0.2,0.2,0.2,0.3c-0.2,0.7-0.4,1.2-0.9,1.7C151,149.7,151,149.7,150.9,149.7z"/>
<path fill="#444444" d="M128.7,157.6C128.7,157.6,128.7,157.6,128.7,157.6c-2.5-0.2-2.8-2.6-2.8-2.6c0-0.1,0.1-0.3,0.2-0.3
	c0.1,0,0.3,0.1,0.3,0.2c0,0.1,0.3,2,2.4,2.2c0.1,0,0.2,0.1,0.2,0.3C129,157.5,128.9,157.6,128.7,157.6z"/>
<path fill="#444444" d="M127.4,136.5c1.3,0,2.4,1.1,2.4,2.4H125C125,137.5,126.1,136.5,127.4,136.5 M127.4,136
	c-1.6,0-2.9,1.3-2.9,2.9c0,0.3,0.2,0.5,0.5,0.5h4.8c0.3,0,0.5-0.2,0.5-0.5C130.3,137.3,129,136,127.4,136L127.4,136z"/>
<path fill="#444444" d="M125.7,142.1c-0.1,0-0.2-0.1-0.2-0.2l-0.6-2.7c0-0.1,0-0.2,0-0.2c0-0.1,0.1-0.1,0.2-0.1h4.8
	c0.1,0,0.1,0,0.2,0.1c0,0.1,0.1,0.1,0,0.2l-0.6,2.7c0,0.1-0.2,0.2-0.3,0.2c-0.1,0-0.2-0.2-0.2-0.3l0.5-2.4h-4.2l0.5,2.4
	C125.9,141.9,125.8,142,125.7,142.1C125.7,142.1,125.7,142.1,125.7,142.1z"/>
<path fill="#444444" d="M129,144C129,144,129,144,129,144c-0.2,0-0.3-0.1-0.2-0.3l0.2-1.7h-3l0.2,1.5c0,0.1-0.1,0.3-0.2,0.3
	c-0.1,0-0.3-0.1-0.3-0.2l-0.2-1.8c0-0.1,0-0.1,0.1-0.2c0-0.1,0.1-0.1,0.2-0.1h3.6c0.1,0,0.1,0,0.2,0.1c0,0.1,0.1,0.1,0.1,0.2
	l-0.2,1.9C129.2,143.9,129.1,144,129,144z"/>
<path fill="#444444" d="M128.8,143.9v8.4h-2.7v-8.4H128.8 M128.8,143.4h-2.7c-0.3,0-0.5,0.2-0.5,0.5v8.4c0,0.3,0.2,0.5,0.5,0.5h2.7
	c0.3,0,0.5-0.2,0.5-0.5v-8.4C129.3,143.6,129.1,143.4,128.8,143.4L128.8,143.4z"/>
<path fill="#444444" d="M135.2,158.8c-0.1,0-0.2-0.1-0.2-0.2c-0.2-1-0.6-1.7-1.2-2.1c-1.1-0.7-2.7-0.1-2.7-0.1
	c-1,0.2-1.9,0.1-2.6-0.4c-1.1-0.8-1.3-2.2-1.3-2.2c0-0.1,0.1-0.3,0.2-0.3c0.1,0,0.3,0.1,0.3,0.2c0,0,0.2,1.3,1.1,1.9
	c0.6,0.4,1.3,0.5,2.1,0.3c0,0,1.7-0.6,3.1,0.2c0.8,0.5,1.3,1.3,1.4,2.4C135.5,158.7,135.4,158.8,135.2,158.8
	C135.3,158.8,135.3,158.8,135.2,158.8z"/>
<path fill="#444444" d="M88.6,28.4v0.5c0.6,0.1,1.1,0.3,1.6,0.6l-0.6,1c-0.3-0.2-0.7-0.4-1.1-0.5v1.3c1.3,0.3,1.9,0.9,1.9,1.8
	c0,0.9-0.7,1.6-1.8,1.7v0.8h-0.9v-0.9c-0.7-0.1-1.5-0.4-2-0.8l0.7-1c0.5,0.4,0.9,0.6,1.4,0.7v-1.4c-1.2-0.3-1.8-0.8-1.8-1.8
	c0-0.9,0.7-1.6,1.8-1.7v-0.5H88.6 M87.7,31.1v-1.2c-0.4,0.1-0.6,0.3-0.6,0.5C87.2,30.7,87.3,30.9,87.7,31.1 M88.6,33.8
	c0.4-0.1,0.6-0.2,0.6-0.6c0-0.3-0.1-0.5-0.6-0.6V33.8 M88.6,27.9h-0.9c-0.3,0-0.5,0.2-0.5,0.5v0.1c-1.1,0.3-1.8,1.1-1.8,2.1
	c0,1.3,0.9,1.9,1.8,2.2V33c-0.2-0.1-0.4-0.2-0.6-0.4c-0.1-0.1-0.2-0.1-0.3-0.1c0,0-0.1,0-0.1,0c-0.1,0-0.3,0.1-0.3,0.2l-0.7,1
	c-0.2,0.2-0.1,0.5,0.1,0.7c0.5,0.4,1.2,0.7,1.8,0.8v0.4c0,0.3,0.2,0.5,0.5,0.5h0.9c0.3,0,0.5-0.2,0.5-0.5v-0.4
	c1.1-0.3,1.8-1.1,1.8-2.1c0-1.4-1-1.9-1.9-2.2v-0.2c0.1,0.1,0.2,0.1,0.3,0.2c0.1,0.1,0.2,0.1,0.3,0.1c0,0,0.1,0,0.1,0
	c0.1,0,0.3-0.1,0.3-0.2l0.6-1c0.1-0.2,0.1-0.5-0.1-0.7c-0.4-0.3-0.9-0.5-1.4-0.6v-0.1C89.1,28.1,88.9,27.9,88.6,27.9L88.6,27.9z"/>
<path fill="#444444" d="M84.3,36.8h-3.4c-0.1,0-0.2-0.1-0.2-0.2c-0.4-2-0.9-2.5-2.7-2.8c-0.1,0-0.2-0.1-0.2-0.2v-3
	c0-0.1,0.1-0.2,0.2-0.2c1.6-0.2,2.5-1.1,2.6-2.8c0-0.1,0.1-0.2,0.2-0.2h3.4c0.1,0,0.2,0.1,0.2,0.2s0,0.2-0.1,0.3
	c-1.2,1.2-1.9,2.7-1.9,4.3c0,1.7,0.6,3.1,1.9,4.3c0.1,0.1,0.1,0.2,0.1,0.3C84.5,36.7,84.4,36.8,84.3,36.8z M81.1,36.3h2.6
	c-1.1-1.2-1.6-2.6-1.6-4.3c0-1.6,0.5-3.1,1.6-4.3h-2.6c-0.2,1.7-1.2,2.7-2.8,3v2.6C80.1,33.7,80.7,34.3,81.1,36.3z"/>
<path fill="#444444" d="M95.2,36.8h-3.4c-0.1,0-0.2-0.1-0.2-0.2s0-0.2,0.1-0.3c1.2-1.2,1.9-2.7,1.9-4.3c0-1.7-0.6-3.1-1.9-4.3
	c-0.1-0.1-0.1-0.2-0.1-0.3c0-0.1,0.1-0.2,0.2-0.2h3.4c0.1,0,0.2,0.1,0.2,0.2c0,0.8,0.3,1.4,0.8,1.9c0.5,0.5,1.1,0.8,1.8,0.8
	c0.1,0,0.2,0.1,0.2,0.2v3c0,0.1-0.1,0.2-0.2,0.2c-1.6,0.2-2.5,1.1-2.6,2.8C95.4,36.7,95.3,36.8,95.2,36.8z M92.4,36.3H95
	c0.2-1.7,1.2-2.7,2.8-3v-2.6c-0.8-0.1-1.4-0.4-1.9-0.9c-0.5-0.5-0.8-1.2-0.9-2h-2.6C93.4,29,94,30.4,94,32
	C94,33.6,93.4,35.1,92.4,36.3z"/>
<path fill="#444444" d="M98.2,38H77.9c-0.9,0-1.7-0.7-1.7-1.7v-8.7c0-0.9,0.7-1.7,1.7-1.7h20.2c0.9,0,1.7,0.7,1.7,1.7v8.7
	C99.8,37.3,99.1,38,98.2,38z M77.9,26.5c-0.6,0-1.2,0.5-1.2,1.2v8.7c0,0.6,0.5,1.2,1.2,1.2h20.2c0.6,0,1.2-0.5,1.2-1.2v-8.7
	c0-0.6-0.5-1.2-1.2-1.2H77.9z"/>
<path fill="#444444" d="M76.3,36.1h-0.8c-0.6,0-1.1-0.7-1.1-1.7v-8.7c0-0.9,0.7-1.7,1.7-1.7h20.2c0.9,0,1.7,0.5,1.7,1.2v1
	c0,0.1-0.1,0.2-0.2,0.2s-0.2-0.1-0.2-0.2v-1c0-0.4-0.5-0.7-1.2-0.7H76c-0.6,0-1.2,0.5-1.2,1.2v8.7c0,0.7,0.3,1.2,0.6,1.2h0.8
	c0.1,0,0.2,0.1,0.2,0.2S76.4,36.1,76.3,36.1z"/>
<path fill="#444444" d="M74.4,34h-0.8c-0.6,0-1.1-0.7-1.1-1.7v-8.7c0-0.9,0.7-1.7,1.7-1.7h20.2c0.9,0,1.7,0.5,1.7,1.2v1
	c0,0.1-0.1,0.2-0.2,0.2s-0.2-0.1-0.2-0.2v-1c0-0.4-0.5-0.7-1.2-0.7H74.2c-0.6,0-1.2,0.5-1.2,1.2v8.7c0,0.7,0.3,1.2,0.6,1.2h0.8
	c0.1,0,0.2,0.1,0.2,0.2S74.6,34,74.4,34z"/>
</svg>
